<svg width="24" height="24" viewBox="0 0 24 24" fill="none" xmlns="http://www.w3.org/2000/svg">
<path opacity="0.2" d="M12 2.25C9.81196 2.25 7.71354 3.11919 6.16637 4.66637C4.61919 6.21354 3.75 8.31196 3.75 10.5C3.75 15.0562 9 21.75 12 21.75C15 21.75 20.25 15.0562 20.25 10.5C20.25 8.31196 19.3808 6.21354 17.8336 4.66637C16.2865 3.11919 14.188 2.25 12 2.25ZM9.75 13.5C8.95435 13.5 8.19129 13.1839 7.62868 12.6213C7.06607 12.0587 6.75 11.2956 6.75 10.5C6.75 10.3011 6.82902 10.1103 6.96967 9.96967C7.11032 9.82902 7.30109 9.75 7.5 9.75C8.29565 9.75 9.05871 10.0661 9.62132 10.6287C10.1839 11.1913 10.5 11.9544 10.5 12.75C10.5 12.9489 10.421 13.1397 10.2803 13.2803C10.1397 13.421 9.94891 13.5 9.75 13.5ZM14.25 13.5C14.0511 13.5 13.8603 13.421 13.7197 13.2803C13.579 13.1397 13.5 12.9489 13.5 12.75C13.5 11.9544 13.8161 11.1913 14.3787 10.6287C14.9413 10.0661 15.7044 9.75 16.5 9.75C16.6989 9.75 16.8897 9.82902 17.0303 9.96967C17.171 10.1103 17.25 10.3011 17.25 10.5C17.25 11.2956 16.9339 12.0587 16.3713 12.6213C15.8087 13.1839 15.0456 13.5 14.25 13.5Z" fill="black"/>
<path d="M12 1.5C9.61389 1.50273 7.32629 2.45182 5.63905 4.13905C3.95182 5.82629 3.00273 8.11389 3 10.5C3 12.75 4.1775 15.6619 6.15094 18.2812C8.13656 20.9203 10.3228 22.5 12 22.5C13.6772 22.5 15.8634 20.9241 17.8491 18.2812C19.8225 15.6562 21 12.75 21 10.5C20.9973 8.11389 20.0482 5.82629 18.3609 4.13905C16.6737 2.45182 14.3861 1.50273 12 1.5ZM16.6509 17.3831C15.0225 19.5459 13.1541 21 12 21C10.8459 21 8.9775 19.5459 7.34906 17.3831C5.59219 15.0469 4.5 12.4097 4.5 10.5C4.5 8.51088 5.29018 6.60322 6.6967 5.1967C8.10322 3.79018 10.0109 3 12 3C13.9891 3 15.8968 3.79018 17.3033 5.1967C18.7098 6.60322 19.5 8.51088 19.5 10.5C19.5 12.4097 18.4078 15.0469 16.6509 17.3831ZM11.25 12.75C11.25 11.7554 10.8549 10.8016 10.1517 10.0983C9.44839 9.39509 8.49456 9 7.5 9C7.10218 9 6.72064 9.15804 6.43934 9.43934C6.15804 9.72064 6 10.1022 6 10.5C6 11.4946 6.39509 12.4484 7.09835 13.1517C7.80161 13.8549 8.75544 14.25 9.75 14.25C10.1478 14.25 10.5294 14.092 10.8107 13.8107C11.092 13.5294 11.25 13.1478 11.25 12.75ZM7.5 10.5C8.09674 10.5 8.66903 10.7371 9.09099 11.159C9.51295 11.581 9.75 12.1533 9.75 12.75C9.15326 12.75 8.58097 12.5129 8.15901 12.091C7.73705 11.669 7.5 11.0967 7.5 10.5ZM16.5 9C15.5054 9 14.5516 9.39509 13.8483 10.0983C13.1451 10.8016 12.75 11.7554 12.75 12.75C12.75 13.1478 12.908 13.5294 13.1893 13.8107C13.4706 14.092 13.8522 14.25 14.25 14.25C14.7425 14.25 15.2301 14.153 15.6851 13.9645C16.14 13.7761 16.5534 13.4999 16.9017 13.1517C17.2499 12.8034 17.5261 12.39 17.7145 11.9351C17.903 11.4801 18 10.9925 18 10.5C18 10.1022 17.842 9.72064 17.5607 9.43934C17.2794 9.15804 16.8978 9 16.5 9ZM14.25 12.75C14.25 12.1533 14.4871 11.581 14.909 11.159C15.331 10.7371 15.9033 10.5 16.5 10.5C16.5 11.0967 16.2629 11.669 15.841 12.091C15.419 12.5129 14.8467 12.75 14.25 12.75ZM14.25 17.25C14.25 17.4489 14.171 17.6397 14.0303 17.7803C13.8897 17.921 13.6989 18 13.5 18H10.5C10.3011 18 10.1103 17.921 9.96967 17.7803C9.82902 17.6397 9.75 17.4489 9.75 17.25C9.75 17.0511 9.82902 16.8603 9.96967 16.7197C10.1103 16.579 10.3011 16.5 10.5 16.5H13.5C13.6989 16.5 13.8897 16.579 14.0303 16.7197C14.171 16.8603 14.25 17.0511 14.25 17.25Z" fill="black"/>
</svg>
