<svg width="24" height="24" viewBox="0 0 24 24" fill="none" xmlns="http://www.w3.org/2000/svg">
<path d="M12 1.5C9.61389 1.50273 7.32629 2.45182 5.63905 4.13905C3.95182 5.82629 3.00273 8.11389 3 10.5C3 12.75 4.1775 15.6619 6.15094 18.2812C8.13656 20.9203 10.3228 22.5 12 22.5C13.6772 22.5 15.8634 20.9241 17.8491 18.2812C19.8225 15.6562 21 12.75 21 10.5C20.9973 8.11389 20.0482 5.82629 18.3609 4.13905C16.6737 2.45182 14.3861 1.50273 12 1.5ZM6 10.875C6 10.5766 6.11853 10.2905 6.3295 10.0795C6.54048 9.86853 6.82663 9.75 7.125 9.75C8.02011 9.75 8.87855 10.1056 9.51149 10.7385C10.1444 11.3715 10.5 12.2299 10.5 13.125C10.5 13.4234 10.3815 13.7095 10.1705 13.9205C9.95952 14.1315 9.67337 14.25 9.375 14.25C8.47989 14.25 7.62145 13.8944 6.98851 13.2615C6.35558 12.6285 6 11.7701 6 10.875ZM13.5 18.75H10.5C10.3011 18.75 10.1103 18.671 9.96967 18.5303C9.82902 18.3897 9.75 18.1989 9.75 18C9.75 17.8011 9.82902 17.6103 9.96967 17.4697C10.1103 17.329 10.3011 17.25 10.5 17.25H13.5C13.6989 17.25 13.8897 17.329 14.0303 17.4697C14.171 17.6103 14.25 17.8011 14.25 18C14.25 18.1989 14.171 18.3897 14.0303 18.5303C13.8897 18.671 13.6989 18.75 13.5 18.75ZM14.625 14.25C14.3266 14.25 14.0405 14.1315 13.8295 13.9205C13.6185 13.7095 13.5 13.4234 13.5 13.125C13.5 12.2299 13.8556 11.3715 14.4885 10.7385C15.1215 10.1056 15.9799 9.75 16.875 9.75C17.1734 9.75 17.4595 9.86853 17.6705 10.0795C17.8815 10.2905 18 10.5766 18 10.875C18 11.3182 17.9127 11.7571 17.7431 12.1666C17.5735 12.576 17.3249 12.9481 17.0115 13.2615C16.6981 13.5749 16.326 13.8235 15.9166 13.9931C15.5071 14.1627 15.0682 14.25 14.625 14.25Z" fill="black"/>
</svg>
