<svg width="24" height="24" viewBox="0 0 24 24" fill="none" xmlns="http://www.w3.org/2000/svg">
<path d="M20.25 3.75H3.75C3.35218 3.75 2.97064 3.90804 2.68934 4.18934C2.40804 4.47064 2.25 4.85218 2.25 5.25V18.75C2.25 19.1478 2.40804 19.5294 2.68934 19.8107C2.97064 20.092 3.35218 20.25 3.75 20.25H20.25C20.6478 20.25 21.0294 20.092 21.3107 19.8107C21.592 19.5294 21.75 19.1478 21.75 18.75V5.25C21.75 4.85218 21.592 4.47064 21.3107 4.18934C21.0294 3.90804 20.6478 3.75 20.25 3.75ZM6.375 9C6.1525 9 5.93499 8.93402 5.74998 8.8104C5.56498 8.68679 5.42078 8.51109 5.33564 8.30552C5.25049 8.09995 5.22821 7.87375 5.27162 7.65552C5.31502 7.43729 5.42217 7.23684 5.5795 7.0795C5.73684 6.92217 5.93729 6.81502 6.15552 6.77162C6.37375 6.72821 6.59995 6.75049 6.80552 6.83564C7.01109 6.92078 7.18679 7.06498 7.3104 7.24998C7.43402 7.43499 7.5 7.6525 7.5 7.875C7.5 8.17337 7.38147 8.45952 7.1705 8.6705C6.95952 8.88147 6.67337 9 6.375 9ZM10.125 9C9.9025 9 9.68499 8.93402 9.49998 8.8104C9.31498 8.68679 9.17078 8.51109 9.08564 8.30552C9.00049 8.09995 8.97821 7.87375 9.02162 7.65552C9.06502 7.43729 9.17217 7.23684 9.3295 7.0795C9.48684 6.92217 9.68729 6.81502 9.90552 6.77162C10.1238 6.72821 10.35 6.75049 10.5555 6.83564C10.7611 6.92078 10.9368 7.06498 11.0604 7.24998C11.184 7.43499 11.25 7.6525 11.25 7.875C11.25 8.17337 11.1315 8.45952 10.9205 8.6705C10.7095 8.88147 10.4234 9 10.125 9Z" fill="black"/>
</svg>
