<svg width="24" height="24" viewBox="0 0 24 24" fill="none" xmlns="http://www.w3.org/2000/svg">
<path opacity="0.2" d="M21 5.25V18.75C21 18.9489 20.921 19.1397 20.7803 19.2803C20.6397 19.421 20.4489 19.5 20.25 19.5H3.75C3.55109 19.5 3.36032 19.421 3.21967 19.2803C3.07902 19.1397 3 18.9489 3 18.75V5.25C3 5.05109 3.07902 4.86032 3.21967 4.71967C3.36032 4.57902 3.55109 4.5 3.75 4.5H20.25C20.4489 4.5 20.6397 4.57902 20.7803 4.71967C20.921 4.86032 21 5.05109 21 5.25Z" fill="black"/>
<path d="M20.25 3.75H3.75C3.35218 3.75 2.97064 3.90804 2.68934 4.18934C2.40804 4.47064 2.25 4.85218 2.25 5.25V18.75C2.25 19.1478 2.40804 19.5294 2.68934 19.8107C2.97064 20.092 3.35218 20.25 3.75 20.25H20.25C20.6478 20.25 21.0294 20.092 21.3107 19.8107C21.592 19.5294 21.75 19.1478 21.75 18.75V5.25C21.75 4.85218 21.592 4.47064 21.3107 4.18934C21.0294 3.90804 20.6478 3.75 20.25 3.75ZM20.25 18.75H3.75V5.25H20.25V18.75ZM7.5 7.875C7.5 8.0975 7.43402 8.31501 7.3104 8.50002C7.18679 8.68502 7.01109 8.82922 6.80552 8.91436C6.59995 8.99951 6.37375 9.02179 6.15552 8.97838C5.93729 8.93498 5.73684 8.82783 5.5795 8.6705C5.42217 8.51316 5.31502 8.31271 5.27162 8.09448C5.22821 7.87625 5.25049 7.65005 5.33564 7.44448C5.42078 7.23891 5.56498 7.06321 5.74998 6.9396C5.93499 6.81598 6.1525 6.75 6.375 6.75C6.67337 6.75 6.95952 6.86853 7.1705 7.0795C7.38147 7.29048 7.5 7.57663 7.5 7.875ZM11.25 7.875C11.25 8.0975 11.184 8.31501 11.0604 8.50002C10.9368 8.68502 10.7611 8.82922 10.5555 8.91436C10.35 8.99951 10.1238 9.02179 9.90552 8.97838C9.68729 8.93498 9.48684 8.82783 9.3295 8.6705C9.17217 8.51316 9.06502 8.31271 9.02162 8.09448C8.97821 7.87625 9.00049 7.65005 9.08564 7.44448C9.17078 7.23891 9.31498 7.06321 9.49998 6.9396C9.68499 6.81598 9.9025 6.75 10.125 6.75C10.4234 6.75 10.7095 6.86853 10.9205 7.0795C11.1315 7.29048 11.25 7.57663 11.25 7.875Z" fill="black"/>
</svg>
