<svg width="24" height="24" viewBox="0 0 24 24" fill="none" xmlns="http://www.w3.org/2000/svg">
<path d="M19.5 3H4.5C4.10218 3 3.72064 3.15804 3.43934 3.43934C3.15804 3.72064 3 4.10218 3 4.5V19.5C3 19.8978 3.15804 20.2794 3.43934 20.5607C3.72064 20.842 4.10218 21 4.5 21H19.5C19.8978 21 20.2794 20.842 20.5607 20.5607C20.842 20.2794 21 19.8978 21 19.5V4.5C21 4.10218 20.842 3.72064 20.5607 3.43934C20.2794 3.15804 19.8978 3 19.5 3ZM15.75 13.5C15.75 13.6989 15.671 13.8897 15.5303 14.0303C15.3897 14.171 15.1989 14.25 15 14.25C14.8011 14.25 14.6103 14.171 14.4697 14.0303C14.329 13.8897 14.25 13.6989 14.25 13.5V10.8103L9.53063 15.5306C9.46094 15.6003 9.37822 15.6556 9.28717 15.6933C9.19613 15.731 9.09855 15.7504 9 15.7504C8.90145 15.7504 8.80387 15.731 8.71283 15.6933C8.62178 15.6556 8.53906 15.6003 8.46937 15.5306C8.39969 15.4609 8.34442 15.3782 8.3067 15.2872C8.26899 15.1961 8.24958 15.0985 8.24958 15C8.24958 14.9015 8.26899 14.8039 8.3067 14.7128C8.34442 14.6218 8.39969 14.5391 8.46937 14.4694L13.1897 9.75H10.5C10.3011 9.75 10.1103 9.67098 9.96967 9.53033C9.82902 9.38968 9.75 9.19891 9.75 9C9.75 8.80109 9.82902 8.61032 9.96967 8.46967C10.1103 8.32902 10.3011 8.25 10.5 8.25H15C15.1989 8.25 15.3897 8.32902 15.5303 8.46967C15.671 8.61032 15.75 8.80109 15.75 9V13.5Z" fill="black"/>
</svg>
