<svg width="24" height="24" viewBox="0 0 24 24" fill="none" xmlns="http://www.w3.org/2000/svg">
<path opacity="0.2" d="M20.25 4.5V19.5C20.25 19.6989 20.171 19.8897 20.0303 20.0303C19.8897 20.171 19.6989 20.25 19.5 20.25H4.5C4.30109 20.25 4.11032 20.171 3.96967 20.0303C3.82902 19.8897 3.75 19.6989 3.75 19.5V4.5C3.75 4.30109 3.82902 4.11032 3.96967 3.96967C4.11032 3.82902 4.30109 3.75 4.5 3.75H19.5C19.6989 3.75 19.8897 3.82902 20.0303 3.96967C20.171 4.11032 20.25 4.30109 20.25 4.5Z" fill="black"/>
<path d="M19.5 3H4.5C4.10218 3 3.72064 3.15804 3.43934 3.43934C3.15804 3.72064 3 4.10218 3 4.5V19.5C3 19.8978 3.15804 20.2794 3.43934 20.5607C3.72064 20.842 4.10218 21 4.5 21H19.5C19.8978 21 20.2794 20.842 20.5607 20.5607C20.842 20.2794 21 19.8978 21 19.5V4.5C21 4.10218 20.842 3.72064 20.5607 3.43934C20.2794 3.15804 19.8978 3 19.5 3ZM19.5 19.5H4.5V4.5H19.5V19.5ZM8.46937 15.5306C8.39964 15.461 8.34432 15.3783 8.30658 15.2872C8.26884 15.1962 8.24941 15.0986 8.24941 15C8.24941 14.9014 8.26884 14.8038 8.30658 14.7128C8.34432 14.6217 8.39964 14.539 8.46937 14.4694L13.1897 9.75H10.5C10.3011 9.75 10.1103 9.67098 9.96967 9.53033C9.82902 9.38968 9.75 9.19891 9.75 9C9.75 8.80109 9.82902 8.61032 9.96967 8.46967C10.1103 8.32902 10.3011 8.25 10.5 8.25H15C15.1989 8.25 15.3897 8.32902 15.5303 8.46967C15.671 8.61032 15.75 8.80109 15.75 9V13.5C15.75 13.6989 15.671 13.8897 15.5303 14.0303C15.3897 14.171 15.1989 14.25 15 14.25C14.8011 14.25 14.6103 14.171 14.4697 14.0303C14.329 13.8897 14.25 13.6989 14.25 13.5V10.8103L9.53063 15.5306C9.46097 15.6004 9.37825 15.6557 9.28721 15.6934C9.19616 15.7312 9.09856 15.7506 9 15.7506C8.90144 15.7506 8.80384 15.7312 8.71279 15.6934C8.62175 15.6557 8.53903 15.6004 8.46937 15.5306Z" fill="black"/>
</svg>
