<svg width="24" height="24" viewBox="0 0 24 24" fill="none" xmlns="http://www.w3.org/2000/svg">
<path d="M21.75 12C21.75 12.0478 21.75 12.0937 21.75 12.1425C21.7181 13.4794 21.2222 15 19.125 15C16.9556 15 16.5 13.3687 16.5 12V8.24999C16.5002 8.14717 16.4793 8.04541 16.4385 7.95102C16.3978 7.85663 16.3381 7.77162 16.2631 7.70129C16.1881 7.63095 16.0994 7.57679 16.0026 7.54216C15.9058 7.50753 15.8029 7.49318 15.7003 7.49999C15.5071 7.51658 15.3274 7.60582 15.1974 7.74971C15.0675 7.8936 14.9969 8.08143 15 8.2753V8.6503C14.3229 8.04348 13.4779 7.65599 12.5763 7.53887C11.6747 7.42174 10.7587 7.58048 9.94911 7.99416C9.13947 8.40785 8.47414 9.05708 8.04075 9.85634C7.60736 10.6556 7.42624 11.5674 7.52125 12.4716C7.61626 13.3758 7.98294 14.2301 8.573 14.9218C9.16305 15.6135 9.9488 16.1103 10.8267 16.3466C11.7047 16.583 12.6336 16.5479 13.4912 16.2459C14.3488 15.9439 15.0948 15.3893 15.6309 14.655C15.7247 14.819 15.8306 14.9757 15.9478 15.1237C16.4513 15.75 17.4103 16.5 19.125 16.5C19.4146 16.501 19.7037 16.4774 19.9894 16.4297C20.06 16.4179 20.1325 16.4266 20.1983 16.4547C20.2642 16.4828 20.3206 16.5292 20.3609 16.5884C20.4012 16.6475 20.4238 16.717 20.4259 16.7885C20.428 16.8601 20.4096 16.9308 20.3728 16.9922C19.4914 18.4708 18.2343 19.6898 16.7294 20.5254C15.2244 21.361 13.5251 21.7835 11.8041 21.75C6.66844 21.6469 2.45625 17.5181 2.2575 12.3853C2.20666 11.0899 2.41466 9.79745 2.86932 8.58344C3.32397 7.36943 4.01616 6.25828 4.90539 5.31498C5.79462 4.37169 6.86304 3.61519 8.04813 3.08975C9.23323 2.56432 10.5112 2.28048 11.8073 2.25486C13.1034 2.22924 14.3916 2.46235 15.5965 2.94054C16.8015 3.41874 17.899 4.13242 18.8248 5.03984C19.7506 5.94725 20.4861 7.03018 20.9884 8.22528C21.4907 9.42037 21.7496 10.7036 21.75 12ZM9 12C9 12.5933 9.17595 13.1734 9.50559 13.6667C9.83524 14.16 10.3038 14.5446 10.8519 14.7716C11.4001 14.9987 12.0033 15.0581 12.5853 14.9423C13.1672 14.8266 13.7018 14.5409 14.1213 14.1213C14.5409 13.7018 14.8266 13.1672 14.9424 12.5853C15.0581 12.0033 14.9987 11.4001 14.7716 10.8519C14.5446 10.3038 14.1601 9.83522 13.6667 9.50558C13.1734 9.17594 12.5933 8.99999 12 8.99999C11.2044 8.99999 10.4413 9.31606 9.87868 9.87867C9.31607 10.4413 9 11.2043 9 12Z" fill="black"/>
</svg>
