<svg width="24" height="24" viewBox="0 0 24 24" fill="none" xmlns="http://www.w3.org/2000/svg">
<path d="M18.3863 12C20.6972 8.75533 21.8756 5.40189 20.2369 3.76314C18.5981 2.12439 15.2447 3.30283 12 5.61376C8.75533 3.30283 5.40189 2.12439 3.76314 3.76314C2.12439 5.40189 3.30283 8.75533 5.61376 12C3.30283 15.2447 2.12439 18.5981 3.76314 20.2369C4.29095 20.7647 4.99595 21 5.8172 21C7.54876 21 9.7997 19.9528 12.0047 18.3863C14.2003 19.9528 16.4503 21 18.1875 21C19.0088 21 19.7147 20.7638 20.2416 20.2369C21.8756 18.5981 20.6972 15.2447 18.3863 12ZM19.1766 4.82345C19.8928 5.5397 19.4091 7.86095 17.4403 10.756C16.8175 9.98494 16.1544 9.24735 15.4538 8.54626C14.7524 7.84688 14.0148 7.18472 13.2441 6.56251C16.1391 4.59376 18.4603 4.1072 19.1766 4.82345ZM4.82345 4.82345C5.0297 4.61626 5.37001 4.50939 5.81908 4.50939C6.9272 4.50939 8.69626 5.15626 10.755 6.56251C9.9848 7.18494 9.24755 7.84709 8.54626 8.54626C7.84661 9.24742 7.18443 9.98501 6.56251 10.756C4.59376 7.86095 4.1072 5.5397 4.82345 4.82345ZM4.82345 19.1766C4.1072 18.4603 4.59376 16.1391 6.56251 13.2441C7.18535 14.0151 7.84846 14.7527 8.54908 15.4538C9.24978 16.1529 9.9864 16.815 10.756 17.4375C7.86095 19.4063 5.5397 19.8928 4.82345 19.1766ZM12 13.125C11.7775 13.125 11.56 13.059 11.375 12.9354C11.19 12.8118 11.0458 12.6361 10.9606 12.4305C10.8755 12.225 10.8532 11.9988 10.8966 11.7805C10.94 11.5623 11.0472 11.3619 11.2045 11.2045C11.3619 11.0472 11.5623 10.94 11.7805 10.8966C11.9988 10.8532 12.225 10.8755 12.4305 10.9606C12.6361 11.0458 12.8118 11.19 12.9354 11.375C13.059 11.56 13.125 11.7775 13.125 12C13.125 12.2984 13.0065 12.5845 12.7955 12.7955C12.5845 13.0065 12.2984 13.125 12 13.125ZM19.1766 19.1775C18.4603 19.8947 16.1391 19.41 13.2441 17.4413C14.0147 16.8179 14.7522 16.1548 15.4538 15.4547C16.1534 14.7532 16.8156 14.0153 17.4375 13.2441C19.4063 16.1391 19.8928 18.4603 19.1766 19.1766V19.1775Z" fill="black"/>
</svg>
