<svg width="24" height="24" viewBox="0 0 24 24" fill="none" xmlns="http://www.w3.org/2000/svg">
<path opacity="0.2" d="M19.7119 19.7119C18.0966 21.3272 13.3369 19.1841 9.075 14.925C4.81312 10.6659 2.67281 5.90626 4.28812 4.28814C5.90343 2.67001 10.6631 4.81595 14.925 9.07501C19.1869 13.3341 21.3272 18.0938 19.7119 19.7119Z" fill="black"/>
<path d="M18.3863 12C20.6972 8.75533 21.8756 5.40189 20.2369 3.76314C18.5981 2.12439 15.2447 3.30283 12 5.61376C8.75533 3.30283 5.40189 2.12439 3.76314 3.76314C2.12439 5.40189 3.30283 8.75533 5.61376 12C3.30283 15.2447 2.12439 18.5981 3.76314 20.2369C4.29095 20.7647 4.99595 21 5.8172 21C7.5497 21 9.7997 19.9528 12.0047 18.3863C14.2003 19.9528 16.4503 21 18.1875 21C19.0088 21 19.7147 20.7638 20.2416 20.2369C21.8756 18.5981 20.6972 15.2447 18.3863 12ZM19.1766 4.82345C19.8928 5.5397 19.4091 7.86095 17.4403 10.756C16.8175 9.98494 16.1544 9.24735 15.4538 8.54626C14.7526 7.84661 14.015 7.18443 13.2441 6.56251C16.1391 4.59376 18.4603 4.10626 19.1766 4.82345ZM16.5272 12C15.8638 12.8392 15.1513 13.6384 14.3935 14.3935C13.6384 15.1513 12.8392 15.8638 12 16.5272C11.1608 15.8638 10.3616 15.1513 9.60658 14.3935C8.84872 13.6384 8.13623 12.8392 7.47283 12C8.8038 10.3228 10.3228 8.8038 12 7.47283C12.8392 8.13623 13.6384 8.84872 14.3935 9.60658C15.1513 10.3616 15.8638 11.1608 16.5272 12ZM4.82345 4.82345C5.0297 4.61626 5.37001 4.50939 5.81908 4.50939C6.9272 4.50939 8.69626 5.15626 10.755 6.56251C9.9848 7.18494 9.24755 7.84709 8.54626 8.54626C7.84661 9.24742 7.18443 9.98501 6.56251 10.756C4.59376 7.86095 4.1072 5.5397 4.82345 4.82345ZM4.82345 19.1766C4.1072 18.4603 4.59376 16.1391 6.56251 13.2441C7.18535 14.0151 7.84846 14.7527 8.54908 15.4538C9.24978 16.1529 9.9864 16.815 10.756 17.4375C7.86095 19.4063 5.5397 19.8938 4.82345 19.1766ZM19.1766 19.1766C18.4603 19.8938 16.1391 19.4091 13.2441 17.4403C14.0147 16.817 14.7522 16.1539 15.4538 15.4538C16.1534 14.7526 16.8156 14.015 17.4375 13.2441C19.4063 16.1391 19.8928 18.4603 19.1766 19.1766ZM13.125 12C13.125 12.2225 13.059 12.44 12.9354 12.625C12.8118 12.81 12.6361 12.9542 12.4305 13.0394C12.225 13.1245 11.9988 13.1468 11.7805 13.1034C11.5623 13.06 11.3619 12.9528 11.2045 12.7955C11.0472 12.6382 10.94 12.4377 10.8966 12.2195C10.8532 12.0013 10.8755 11.7751 10.9606 11.5695C11.0458 11.3639 11.19 11.1882 11.375 11.0646C11.56 10.941 11.7775 10.875 12 10.875C12.2984 10.875 12.5845 10.9935 12.7955 11.2045C13.0065 11.4155 13.125 11.7016 13.125 12Z" fill="black"/>
</svg>
