<svg width="24" height="24" viewBox="0 0 24 24" fill="none" xmlns="http://www.w3.org/2000/svg">
<path d="M12.5775 2.25936C12.5119 2.25593 12.4465 2.26979 12.3879 2.29957C12.3294 2.32936 12.2796 2.374 12.2437 2.42905C11.2781 3.88874 11.25 5.2303 11.25 5.24999C11.2504 5.3616 11.2758 5.4717 11.3242 5.57228C11.3726 5.67285 11.4428 5.76135 11.5298 5.83132C11.6167 5.9013 11.7182 5.95098 11.8268 5.97676C11.9354 6.00253 12.0484 6.00374 12.1575 5.9803C12.3278 5.9395 12.4792 5.84204 12.5869 5.70389C12.6945 5.56575 12.7521 5.39512 12.75 5.21999C12.7536 5.1174 12.7782 5.01664 12.8223 4.92395C12.8664 4.83126 12.9291 4.74861 13.0064 4.68111C13.0837 4.61362 13.1741 4.56272 13.2719 4.53156C13.3697 4.50041 13.4729 4.48966 13.575 4.49999C13.7632 4.52184 13.9366 4.61294 14.0613 4.75555C14.1861 4.89816 14.2534 5.08209 14.25 5.27155C14.2466 5.86829 14.0064 6.43925 13.582 6.85883C13.1577 7.27842 12.5841 7.51225 11.9873 7.50889C11.3906 7.50554 10.8196 7.26527 10.4001 6.84094C9.98048 6.41661 9.74664 5.84298 9.75 5.24624C9.75 5.18718 9.75844 4.23561 10.26 2.99624C10.2854 2.93282 10.293 2.86366 10.282 2.79624C10.2709 2.72882 10.2417 2.66569 10.1974 2.61368C10.1531 2.56166 10.0954 2.52274 10.0306 2.5011C9.96583 2.47947 9.89634 2.47595 9.82969 2.49093C7.61987 2.99853 5.65557 4.2593 4.27376 6.05695C2.89195 7.8546 2.17877 10.0771 2.25656 12.3431C2.4375 17.505 6.67781 21.6562 11.8425 21.7406C14.3903 21.7796 16.852 20.8197 18.7009 19.0664C20.5498 17.313 21.6388 14.9056 21.7349 12.3593C21.831 9.81311 20.9264 7.33044 19.2149 5.44276C17.5034 3.55509 15.1209 2.41242 12.5775 2.25936ZM7.5 11.9916C7.5 11.769 7.56598 11.5515 7.6896 11.3665C7.81321 11.1815 7.98891 11.0373 8.19448 10.9522C8.40005 10.867 8.62625 10.8448 8.84448 10.8882C9.0627 10.9316 9.26316 11.0387 9.42049 11.1961C9.57783 11.3534 9.68497 11.5538 9.72838 11.7721C9.77179 11.9903 9.74951 12.2165 9.66436 12.4221C9.57922 12.6276 9.43502 12.8033 9.25002 12.927C9.06501 13.0506 8.8475 13.1166 8.625 13.1166C8.32663 13.1166 8.04048 12.998 7.8295 12.787C7.61853 12.5761 7.5 12.2899 7.5 11.9916ZM15.0253 17.1262C14.1177 17.692 13.0696 17.992 12 17.992C10.9304 17.992 9.88232 17.692 8.97469 17.1262C8.80636 17.0201 8.6871 16.8514 8.64314 16.6573C8.59919 16.4632 8.63414 16.2596 8.74031 16.0912C8.84648 15.9229 9.01517 15.8036 9.20927 15.7597C9.40337 15.7157 9.60698 15.7507 9.77531 15.8569C10.4433 16.2714 11.2138 16.4911 12 16.4911C12.7862 16.4911 13.5567 16.2714 14.2247 15.8569C14.308 15.8043 14.4009 15.7687 14.498 15.752C14.5952 15.7353 14.6946 15.7379 14.7907 15.7597C14.8868 15.7815 14.9777 15.8219 15.0582 15.8788C15.1386 15.9357 15.2071 16.0079 15.2597 16.0912C15.3123 16.1746 15.3479 16.2675 15.3646 16.3646C15.3812 16.4617 15.3786 16.5612 15.3569 16.6573C15.3351 16.7534 15.2946 16.8443 15.2377 16.9247C15.1808 17.0052 15.1087 17.0737 15.0253 17.1262ZM15.375 13.1166C15.1525 13.1166 14.935 13.0506 14.75 12.927C14.565 12.8033 14.4208 12.6276 14.3356 12.4221C14.2505 12.2165 14.2282 11.9903 14.2716 11.7721C14.315 11.5538 14.4222 11.3534 14.5795 11.1961C14.7368 11.0387 14.9373 10.9316 15.1555 10.8882C15.3738 10.8448 15.6 10.867 15.8055 10.9522C16.0111 11.0373 16.1868 11.1815 16.3104 11.3665C16.434 11.5515 16.5 11.769 16.5 11.9916C16.5 12.2899 16.3815 12.5761 16.1705 12.787C15.9595 12.998 15.6734 13.1166 15.375 13.1166Z" fill="black"/>
</svg>
