<svg width="24" height="24" viewBox="0 0 24 24" fill="none" xmlns="http://www.w3.org/2000/svg">
<path d="M22.2394 14.2406V14.2313C22.2378 14.2242 22.2356 14.2173 22.2328 14.2106C22.1706 14.0408 22.0983 13.8749 22.0163 13.7138L18.1191 4.85625C18.0815 4.77094 18.0285 4.69336 17.9625 4.6275C17.6839 4.34885 17.3532 4.12781 16.9891 3.97701C16.6251 3.8262 16.235 3.74858 15.8409 3.74858C15.4469 3.74858 15.0568 3.8262 14.6927 3.97701C14.3287 4.12781 13.998 4.34885 13.7194 4.6275C13.5792 4.76781 13.5003 4.95793 13.5 5.15625V7.5H10.5V5.15625C10.5001 5.05773 10.4807 4.96016 10.4431 4.86911C10.4055 4.77807 10.3503 4.69533 10.2806 4.62563C10.002 4.34698 9.67129 4.12594 9.30727 3.97513C8.94325 3.82432 8.55309 3.7467 8.15906 3.7467C7.76504 3.7467 7.37488 3.82432 7.01086 3.97513C6.64683 4.12594 6.31609 4.34698 6.0375 4.62563C5.97155 4.69149 5.91846 4.76906 5.88094 4.85438L1.9875 13.7138C1.90549 13.8749 1.83317 14.0408 1.77094 14.2106C1.76833 14.217 1.76614 14.2236 1.76438 14.2303C1.76438 14.2303 1.76438 14.2378 1.76438 14.2406C1.37718 15.3594 1.44645 16.5857 1.95718 17.6537C2.46791 18.7218 3.37896 19.5455 4.49287 19.9465C5.60679 20.3474 6.83383 20.2932 7.90808 19.7957C8.98233 19.2982 9.81725 18.3973 10.2319 17.2884C10.4144 16.7903 10.5065 16.2636 10.5038 15.7331V9H13.5038V15.7341C13.501 16.2646 13.5931 16.7913 13.7756 17.2894C14.1903 18.3983 15.0252 19.2991 16.0994 19.7966C17.1737 20.2942 18.4007 20.3483 19.5146 19.9474C20.6285 19.5465 21.5396 18.7227 22.0503 17.6547C22.5611 16.5866 22.6303 15.3603 22.2431 14.2416L22.2394 14.2406ZM8.81906 16.7719C8.54211 17.5109 7.98513 18.1109 7.2688 18.4421C6.55248 18.7733 5.73451 18.8089 4.99214 18.5412C4.24976 18.2734 3.64278 17.724 3.3027 17.0118C2.96263 16.2997 2.91686 15.4822 3.17531 14.7366L3.345 14.3494C3.65688 13.7565 4.1582 13.2851 4.76909 13.0103C5.37997 12.7354 6.06527 12.6729 6.71579 12.8328C7.36631 12.9926 7.94463 13.3655 8.35859 13.8922C8.77256 14.4188 8.99835 15.0689 9 15.7388V15.75C8.99995 16.0998 8.93871 16.4469 8.81906 16.7756V16.7719ZM19.0313 18.5691C18.5778 18.7351 18.0909 18.7891 17.6121 18.7267C17.1332 18.6642 16.6765 18.4871 16.2808 18.2104C15.885 17.9336 15.5619 17.5654 15.339 17.1371C15.116 16.7088 14.9997 16.2329 15 15.75V15.7397C15.0025 15.0701 15.2289 14.4207 15.6431 13.8947C16.0574 13.3686 16.6357 12.9963 17.286 12.837C17.9363 12.6776 18.6213 12.7404 19.2318 13.0153C19.8423 13.2903 20.3433 13.7615 20.655 14.3541L20.8247 14.7413C21.0914 15.4868 21.0526 16.3076 20.7166 17.0247C20.3807 17.7417 19.7749 18.2969 19.0313 18.5691Z" fill="black"/>
</svg>
