<svg width="24" height="24" viewBox="0 0 24 24" fill="none" xmlns="http://www.w3.org/2000/svg">
<path opacity="0.2" d="M9.75 15.75C9.75 16.4917 9.53007 17.2167 9.11801 17.8334C8.70596 18.4501 8.12029 18.9307 7.43506 19.2145C6.74984 19.4984 5.99584 19.5726 5.26841 19.4279C4.54098 19.2833 3.8728 18.9261 3.34835 18.4017C2.8239 17.8772 2.46675 17.209 2.32206 16.4816C2.17736 15.7542 2.25162 15.0002 2.53545 14.3149C2.81928 13.6297 3.29993 13.044 3.91661 12.632C4.5333 12.2199 5.25832 12 6 12C6.99456 12 7.94839 12.3951 8.65165 13.0983C9.35491 13.8016 9.75 14.7554 9.75 15.75ZM18 12C17.2583 12 16.5333 12.2199 15.9166 12.632C15.2999 13.044 14.8193 13.6297 14.5355 14.3149C14.2516 15.0002 14.1774 15.7542 14.3221 16.4816C14.4668 17.209 14.8239 17.8772 15.3484 18.4017C15.8728 18.9261 16.541 19.2833 17.2684 19.4279C17.9958 19.5726 18.7498 19.4984 19.4351 19.2145C20.1203 18.9307 20.706 18.4501 21.118 17.8334C21.5301 17.2167 21.75 16.4917 21.75 15.75C21.75 14.7554 21.3549 13.8016 20.6517 13.0983C19.9484 12.3951 18.9946 12 18 12Z" fill="black"/>
<path d="M22.2375 14.2378C22.1749 14.063 22.1013 13.8924 22.0172 13.7269L18.1181 4.85625C18.0812 4.77081 18.0284 4.69318 17.9625 4.6275C17.6839 4.34885 17.3532 4.12781 16.9891 3.97701C16.6251 3.8262 16.235 3.74858 15.8409 3.74858C15.4469 3.74858 15.0568 3.8262 14.6927 3.97701C14.3287 4.12781 13.998 4.34885 13.7194 4.6275C13.5792 4.76781 13.5003 4.95793 13.5 5.15625V7.5H10.5V5.15625C10.5001 5.05773 10.4807 4.96016 10.4431 4.86911C10.4055 4.77807 10.3503 4.69533 10.2806 4.62563C10.002 4.34698 9.67129 4.12594 9.30727 3.97513C8.94325 3.82432 8.55309 3.7467 8.15906 3.7467C7.76504 3.7467 7.37488 3.82432 7.01085 3.97513C6.64683 4.12594 6.31609 4.34698 6.0375 4.62563C5.97158 4.69131 5.91876 4.76894 5.88188 4.85438L1.98281 13.725C1.89871 13.8905 1.82512 14.0612 1.7625 14.2359C1.54172 14.8537 1.45867 15.5122 1.51918 16.1655C1.57969 16.8187 1.78229 17.4508 2.11279 18.0175C2.44329 18.5842 2.89369 19.0717 3.43245 19.446C3.97121 19.8203 4.58529 20.0723 5.23168 20.1843C5.87806 20.2963 6.54112 20.2657 7.17441 20.0944C7.80769 19.9232 8.39589 19.6156 8.89779 19.1932C9.39968 18.7708 9.80315 18.2437 10.0799 17.6489C10.3567 17.0541 10.5001 16.406 10.5 15.75V9H13.5V15.75C13.4997 16.4061 13.6428 17.0543 13.9194 17.6493C14.196 18.2442 14.5993 18.7715 15.1011 19.1942C15.603 19.6168 16.1911 19.9246 16.8245 20.096C17.4578 20.2674 18.1209 20.2982 18.7674 20.1864C19.4139 20.0745 20.0281 19.8226 20.567 19.4483C21.1059 19.074 21.5564 18.5865 21.887 18.0197C22.2176 17.453 22.4202 16.8209 22.4808 16.1676C22.5413 15.5143 22.4583 14.8556 22.2375 14.2378ZM7.19156 5.60156C7.44161 5.39102 7.75359 5.26793 8.08004 5.251C8.40648 5.23408 8.72952 5.32426 9 5.50781V12.3994C8.41444 11.8736 7.70098 11.5109 6.93111 11.3477C6.16123 11.1845 5.36198 11.2264 4.61344 11.4694L7.19156 5.60156ZM6 18.75C5.40666 18.75 4.82664 18.5741 4.33329 18.2444C3.83994 17.9148 3.45542 17.4462 3.22836 16.8981C3.0013 16.3499 2.94189 15.7467 3.05764 15.1647C3.1734 14.5828 3.45912 14.0482 3.87868 13.6287C4.29824 13.2091 4.83279 12.9234 5.41473 12.8076C5.99667 12.6919 6.59987 12.7513 7.14805 12.9784C7.69623 13.2054 8.16476 13.5899 8.49441 14.0833C8.82405 14.5766 9 15.1567 9 15.75C9 16.5456 8.68393 17.3087 8.12132 17.8713C7.55871 18.4339 6.79565 18.75 6 18.75ZM15 5.50688C15.2705 5.32332 15.5935 5.23314 15.92 5.25006C16.2464 5.26699 16.5584 5.39008 16.8084 5.60063L19.3866 11.4675C18.6379 11.2247 17.8386 11.1829 17.0688 11.3462C16.2989 11.5096 15.5855 11.8725 15 12.3984V5.50688ZM18 18.75C17.4067 18.75 16.8266 18.5741 16.3333 18.2444C15.8399 17.9148 15.4554 17.4462 15.2284 16.8981C15.0013 16.3499 14.9419 15.7467 15.0576 15.1647C15.1734 14.5828 15.4591 14.0482 15.8787 13.6287C16.2982 13.2091 16.8328 12.9234 17.4147 12.8076C17.9967 12.6919 18.5999 12.7513 19.1481 12.9784C19.6962 13.2054 20.1648 13.5899 20.4944 14.0833C20.8241 14.5766 21 15.1567 21 15.75C21 16.5456 20.6839 17.3087 20.1213 17.8713C19.5587 18.4339 18.7956 18.75 18 18.75Z" fill="black"/>
</svg>
