<svg width="24" height="24" viewBox="0 0 24 24" fill="none" xmlns="http://www.w3.org/2000/svg">
<path d="M12 9.39094C11.7776 8.97914 11.527 8.5832 11.25 8.20594V5.25C11.25 5.05109 11.329 4.86032 11.4697 4.71967C11.6103 4.57902 11.8011 4.5 12 4.5C12.1989 4.5 12.3897 4.57902 12.5303 4.71967C12.671 4.86032 12.75 5.05109 12.75 5.25V8.20594C12.473 8.5832 12.2224 8.97914 12 9.39094ZM21.8156 4.7325C21.4688 4.28437 20.7975 3.75 19.5938 3.75C18.0141 3.75 15.9881 4.8075 14.1741 6.5775C13.6554 7.08022 13.1791 7.62488 12.75 8.20594V16.875C12.75 17.0739 12.671 17.2647 12.5303 17.4053C12.3897 17.546 12.1989 17.625 12 17.625C11.8011 17.625 11.6103 17.546 11.4697 17.4053C11.329 17.2647 11.25 17.0739 11.25 16.875V8.20594C10.8221 7.62503 10.3471 7.08037 9.8297 6.5775C8.0147 4.8075 5.98876 3.75 4.40626 3.75C3.20251 3.75 2.53126 4.28437 2.18439 4.7325C1.54501 5.55469 1.04251 6.99 2.1647 11.4075C2.73189 13.6416 3.99376 14.5012 5.03626 14.8219C4.46775 15.745 4.28552 16.8549 4.529 17.9113C4.77249 18.9678 5.42211 19.886 6.33733 20.4672C7.25255 21.0483 8.35979 21.2459 9.41951 21.017C10.4792 20.7881 11.4063 20.1512 12 19.2441C12.5938 20.1512 13.5208 20.7881 14.5805 21.017C15.6402 21.2459 16.7475 21.0483 17.6627 20.4672C18.5779 19.886 19.2275 18.9678 19.471 17.9113C19.7145 16.8549 19.5323 15.745 18.9638 14.8219C20.0063 14.5031 21.2672 13.6416 21.8353 11.4075C22.4653 8.92875 22.9547 6.19687 21.8156 4.7325Z" fill="black"/>
</svg>
