<svg width="24" height="24" viewBox="0 0 24 24" fill="none" xmlns="http://www.w3.org/2000/svg">
<path opacity="0.2" d="M21.105 11.2228C20.3681 14.1234 18.3572 14.2894 17.6025 14.2444H17.5087C17.9494 14.604 18.2921 15.0691 18.5049 15.5966C18.7177 16.1241 18.7937 16.6967 18.7259 17.2615C18.6581 17.8262 18.4487 18.3646 18.1171 18.8267C17.7856 19.2889 17.3426 19.6597 16.8293 19.9048C16.3161 20.1499 15.7492 20.2613 15.1814 20.2287C14.6135 20.1961 14.0631 20.0205 13.5813 19.7182C13.0995 19.4159 12.7019 18.9968 12.4255 18.4997C12.149 18.0026 12.0026 17.4438 12 16.875C11.9979 17.4441 11.8518 18.0034 11.5755 18.501C11.2992 18.9985 10.9016 19.4181 10.4196 19.7207C9.93758 20.0233 9.38689 20.1991 8.81872 20.2318C8.25055 20.2644 7.68334 20.1529 7.16985 19.9075C6.65635 19.6621 6.21325 19.2909 5.88174 18.8283C5.55022 18.3657 5.34107 17.8268 5.27373 17.2617C5.20639 16.6966 5.28304 16.1236 5.49656 15.5961C5.71009 15.0685 6.05354 14.6036 6.49499 14.2444H6.40124C5.65124 14.2894 3.63562 14.1234 2.89874 11.2228C2.13656 8.235 1.47937 4.5 4.41281 4.5C7.34625 4.5 12 8.98125 12 11.9691C12 8.98125 16.6537 4.5 19.5872 4.5C22.5206 4.5 21.8634 8.235 21.105 11.2228Z" fill="black"/>
<path d="M21.8156 4.7325C21.4688 4.28437 20.7975 3.75 19.5938 3.75C18.0141 3.75 15.9881 4.8075 14.1741 6.5775C13.6554 7.08022 13.1791 7.62488 12.75 8.20594V5.25C12.75 5.05109 12.671 4.86032 12.5303 4.71967C12.3897 4.57902 12.1989 4.5 12 4.5C11.8011 4.5 11.6103 4.57902 11.4697 4.71967C11.329 4.86032 11.25 5.05109 11.25 5.25V8.20594C10.8221 7.62503 10.3471 7.08037 9.8297 6.5775C8.0147 4.8075 5.98876 3.75 4.40626 3.75C3.20251 3.75 2.53126 4.28437 2.18439 4.7325C1.54501 5.55469 1.04251 6.99 2.1647 11.4075C2.73189 13.6416 3.99376 14.5012 5.03626 14.8219C4.46775 15.745 4.28552 16.8549 4.529 17.9113C4.77249 18.9678 5.42211 19.886 6.33733 20.4672C7.25255 21.0483 8.35979 21.2459 9.41951 21.017C10.4792 20.7881 11.4063 20.1512 12 19.2441C12.5938 20.1512 13.5208 20.7881 14.5805 21.017C15.6402 21.2459 16.7475 21.0483 17.6627 20.4672C18.5779 19.886 19.2275 18.9678 19.471 17.9113C19.7145 16.8549 19.5323 15.745 18.9638 14.8219C20.0063 14.5031 21.2672 13.6416 21.8353 11.4075C22.4653 8.92875 22.9547 6.19687 21.8156 4.7325ZM8.62501 19.5C7.95947 19.4883 7.32298 19.2253 6.84333 18.7638C6.36368 18.3022 6.07638 17.6763 6.03912 17.0117C6.00185 16.3471 6.21738 15.693 6.64243 15.1808C7.06747 14.6685 7.67057 14.336 8.33064 14.25C8.42991 14.2409 8.52638 14.2121 8.6144 14.1653C8.70242 14.1185 8.78023 14.0546 8.84328 13.9774C8.90632 13.9002 8.95334 13.8112 8.98158 13.7156C9.00982 13.62 9.01871 13.5197 9.00775 13.4206C8.99678 13.3215 8.96617 13.2256 8.9177 13.1385C8.86923 13.0514 8.80389 12.9748 8.72548 12.9132C8.64707 12.8517 8.55718 12.8064 8.46105 12.7799C8.36492 12.7535 8.2645 12.7465 8.16564 12.7594C7.46452 12.8346 6.79473 13.0897 6.22126 13.5C5.43095 13.5084 4.15876 13.1653 3.61876 11.0381C3.34876 9.97406 2.53126 6.73687 3.36939 5.65312C3.50345 5.48062 3.75845 5.25 4.40626 5.25C6.96282 5.25 11.25 9.4575 11.25 11.9691V16.875C11.25 17.5712 10.9734 18.2389 10.4812 18.7312C9.98888 19.2234 9.3212 19.5 8.62501 19.5ZM20.3813 11.0381C19.8403 13.1653 18.5691 13.5075 17.7778 13.5C17.2049 13.0879 16.535 12.8311 15.8334 12.7547C15.7346 12.7418 15.6342 12.7488 15.538 12.7752C15.4419 12.8017 15.352 12.847 15.2736 12.9085C15.1952 12.9701 15.1299 13.0467 15.0814 13.1338C15.0329 13.2209 15.0023 13.3168 14.9913 13.4159C14.9804 13.515 14.9893 13.6153 15.0175 13.7109C15.0457 13.8065 15.0928 13.8955 15.1558 13.9727C15.2189 14.05 15.2967 14.1138 15.3847 14.1606C15.4727 14.2074 15.5692 14.2362 15.6684 14.2453C16.1742 14.3 16.6534 14.4999 17.0481 14.8208C17.4428 15.1418 17.7361 15.5702 17.8927 16.0542C18.0493 16.5383 18.0624 17.0573 17.9305 17.5486C17.7986 18.0399 17.5273 18.4826 17.1494 18.8231C16.7714 19.1637 16.303 19.3876 15.8006 19.4677C15.2983 19.5479 14.7834 19.481 14.3183 19.275C13.8531 19.069 13.4575 18.7328 13.1792 18.3069C12.9009 17.881 12.7519 17.3837 12.75 16.875V11.9691C12.75 9.4575 17.0334 5.25 19.5938 5.25C20.2453 5.25 20.4994 5.48062 20.6344 5.65312C21.4734 6.73687 20.6513 9.97406 20.3813 11.0381Z" fill="black"/>
</svg>
