<svg width="24" height="24" viewBox="0 0 24 24" fill="none" xmlns="http://www.w3.org/2000/svg">
<path d="M20.0306 9.53063L12.5306 17.0306C12.461 17.1004 12.3783 17.1557 12.2872 17.1934C12.1962 17.2312 12.0986 17.2506 12 17.2506C11.9014 17.2506 11.8038 17.2312 11.7128 17.1934C11.6217 17.1557 11.539 17.1004 11.4694 17.0306L3.96937 9.53063C3.86436 9.42573 3.79284 9.29204 3.76385 9.14648C3.73486 9.00092 3.74971 8.85002 3.80653 8.71291C3.86334 8.57579 3.95956 8.45861 4.08301 8.37621C4.20645 8.29381 4.35157 8.24988 4.5 8.25H19.5C19.6484 8.24988 19.7935 8.29381 19.917 8.37621C20.0404 8.45861 20.1366 8.57579 20.1935 8.71291C20.2503 8.85002 20.2651 9.00092 20.2361 9.14648C20.2072 9.29204 20.1356 9.42573 20.0306 9.53063Z" fill="black"/>
</svg>
