<svg width="24" height="24" viewBox="0 0 24 24" fill="none" xmlns="http://www.w3.org/2000/svg">
<path opacity="0.2" d="M21 12C21 13.78 20.4722 15.5201 19.4832 17.0001C18.4943 18.4802 17.0887 19.6337 15.4441 20.3149C13.7996 20.9961 11.99 21.1743 10.2442 20.8271C8.49835 20.4798 6.89471 19.6226 5.63604 18.364C4.37736 17.1053 3.5202 15.5016 3.17293 13.7558C2.82566 12.01 3.00389 10.2004 3.68508 8.55585C4.36627 6.91131 5.51982 5.50571 6.99986 4.51677C8.47991 3.52784 10.22 3 12 3C14.3869 3 16.6761 3.94821 18.364 5.63604C20.0518 7.32387 21 9.61305 21 12Z" fill="black"/>
<path d="M12 2.25C10.0716 2.25 8.18657 2.82183 6.58319 3.89317C4.97981 4.96451 3.73013 6.48726 2.99217 8.26884C2.25422 10.0504 2.06113 12.0108 2.43734 13.9021C2.81355 15.7934 3.74214 17.5307 5.10571 18.8943C6.46927 20.2579 8.20655 21.1865 10.0979 21.5627C11.9892 21.9389 13.9496 21.7458 15.7312 21.0078C17.5127 20.2699 19.0355 19.0202 20.1068 17.4168C21.1782 15.8134 21.75 13.9284 21.75 12C21.7473 9.41498 20.7192 6.93661 18.8913 5.10872C17.0634 3.28084 14.585 2.25273 12 2.25ZM12 20.25C10.3683 20.25 8.77325 19.7661 7.41654 18.8596C6.05984 17.9531 5.00241 16.6646 4.37799 15.1571C3.75357 13.6496 3.59019 11.9908 3.90852 10.3905C4.22685 8.79016 5.01258 7.32015 6.16637 6.16637C7.32015 5.01259 8.79016 4.22685 10.3905 3.90852C11.9908 3.59019 13.6496 3.75357 15.1571 4.37799C16.6646 5.00242 17.9531 6.05984 18.8596 7.41655C19.7661 8.77325 20.25 10.3683 20.25 12C20.2475 14.1873 19.3775 16.2843 17.8309 17.8309C16.2843 19.3775 14.1873 20.2475 12 20.25ZM14.7806 11.4694C14.8504 11.539 14.9057 11.6217 14.9434 11.7128C14.9812 11.8038 15.0006 11.9014 15.0006 12C15.0006 12.0986 14.9812 12.1962 14.9434 12.2872C14.9057 12.3783 14.8504 12.461 14.7806 12.5306L11.0306 16.2806C10.9609 16.3503 10.8782 16.4056 10.7872 16.4433C10.6961 16.481 10.5985 16.5004 10.5 16.5004C10.4015 16.5004 10.3039 16.481 10.2128 16.4433C10.1218 16.4056 10.0391 16.3503 9.96937 16.2806C9.89969 16.2109 9.84441 16.1282 9.8067 16.0372C9.76899 15.9461 9.74958 15.8485 9.74958 15.75C9.74958 15.6515 9.76899 15.5539 9.8067 15.4628C9.84441 15.3718 9.89969 15.2891 9.96937 15.2194L13.1897 12L9.96937 8.78063C9.82864 8.63989 9.74958 8.44902 9.74958 8.25C9.74958 8.05098 9.82864 7.86011 9.96937 7.71937C10.1101 7.57864 10.301 7.49958 10.5 7.49958C10.699 7.49958 10.8899 7.57864 11.0306 7.71937L14.7806 11.4694Z" fill="black"/>
</svg>
