<svg width="24" height="24" viewBox="0 0 24 24" fill="none" xmlns="http://www.w3.org/2000/svg">
<path d="M15.8972 6.80531C15.2184 5.21621 14.0118 3.91023 12.4812 3.10816C10.9506 2.3061 9.19006 2.05715 7.49712 2.40341C5.80418 2.74967 4.28274 3.6699 3.19001 5.00851C2.09727 6.34713 1.5003 8.02201 1.5 9.75V15.75C1.5 16.1478 1.65804 16.5294 1.93934 16.8107C2.22064 17.092 2.60218 17.25 3 17.25H8.12531C8.71058 18.5865 9.67231 19.7238 10.8931 20.5229C12.1139 21.322 13.5409 21.7484 15 21.75H21C21.3978 21.75 21.7794 21.592 22.0607 21.3107C22.342 21.0294 22.5 20.6478 22.5 20.25V14.25C22.4996 12.4165 21.8277 10.6466 20.6111 9.27491C19.3945 7.90319 17.7175 7.02464 15.8972 6.80531ZM21 20.25H15C13.939 20.2488 12.8973 19.9669 11.9805 19.4329C11.0637 18.8989 10.3045 18.1319 9.78 17.2097C10.8072 17.1031 11.8013 16.7853 12.6999 16.2763C13.5985 15.7673 14.3822 15.078 15.0018 14.2517C15.6213 13.4255 16.0634 12.48 16.3003 11.4748C16.5371 10.4696 16.5636 9.42627 16.3781 8.41031C17.6937 8.72078 18.8659 9.46638 19.7048 10.5263C20.5436 11.5862 21 12.8983 21 14.25V20.25Z" fill="black"/>
</svg>
