<svg width="24" height="24" viewBox="0 0 24 24" fill="none" xmlns="http://www.w3.org/2000/svg">
<path d="M20.25 11.25C20.1229 11.2501 19.9978 11.2825 19.8866 11.3441C19.7754 11.4058 19.6818 11.4947 19.6144 11.6025C19.2229 12.2315 18.7904 12.8341 18.3197 13.4063L16.7175 4.97532C16.6698 4.72078 16.5571 4.48291 16.3902 4.28488C16.2233 4.08684 16.008 3.93538 15.7653 3.84524C15.5225 3.7551 15.2605 3.72934 15.0048 3.77048C14.7492 3.81162 14.5085 3.91826 14.3063 4.08L14.2941 4.08938L12 6L9.70594 4.08938L9.69375 4.08C9.49164 3.91827 9.25111 3.8116 8.99555 3.77035C8.74 3.72911 8.47813 3.7547 8.23539 3.84464C7.99266 3.93458 7.77734 4.0858 7.61036 4.28361C7.44338 4.48141 7.33043 4.71906 7.2825 4.97344L5.68031 13.4063C5.20943 12.8339 4.77692 12.231 4.38562 11.6016C4.31813 11.4939 4.22439 11.4052 4.11321 11.3437C4.00203 11.2822 3.87705 11.25 3.75 11.25C2.75544 11.25 1.80161 11.6451 1.09835 12.3484C0.395088 13.0516 0 14.0054 0 15C0 15.9946 0.395088 16.9484 1.09835 17.6517C1.80161 18.3549 2.75544 18.75 3.75 18.75H20.25C21.2446 18.75 22.1984 18.3549 22.9016 17.6517C23.6049 16.9484 24 15.9946 24 15C24 14.0054 23.6049 13.0516 22.9016 12.3484C22.1984 11.6451 21.2446 11.25 20.25 11.25ZM8.75719 5.25L11.0512 7.1625L11.0625 7.17188C11.328 7.38618 11.6588 7.50307 12 7.50307C12.3412 7.50307 12.672 7.38618 12.9375 7.17188L12.9487 7.1625L15.2428 5.25L16.5253 12H7.47469L8.75719 5.25ZM3.75 17.25C3.18701 17.25 2.64448 17.0389 2.22952 16.6584C1.81455 16.2779 1.55731 15.7557 1.50857 15.1948C1.45983 14.6339 1.62313 14.0751 1.96624 13.6288C2.30934 13.1824 2.80733 12.8809 3.36188 12.7838C4.8075 14.9841 6.34969 16.3734 7.725 17.25H3.75ZM12 17.25C11.9691 17.25 9.61031 17.2125 6.95062 14.7563L7.18875 13.5H16.8103L17.0484 14.7516C16.2862 15.4684 15.4221 16.0686 14.4844 16.5328C13.0406 17.2284 12.0056 17.25 12 17.25ZM20.25 17.25H16.275C17.6503 16.3734 19.1925 14.9841 20.6381 12.7838C21.1927 12.8809 21.6907 13.1824 22.0338 13.6288C22.3769 14.0751 22.5402 14.6339 22.4914 15.1948C22.4427 15.7557 22.1854 16.2779 21.7705 16.6584C21.3555 17.0389 20.813 17.25 20.25 17.25Z" fill="black"/>
</svg>
