<svg width="24" height="24" viewBox="0 0 24 24" fill="none" xmlns="http://www.w3.org/2000/svg">
<path d="M24 11.25C24 11.4489 23.921 11.6397 23.7803 11.7803C23.6397 11.921 23.4489 12 23.25 12H0.75C0.551088 12 0.360322 11.921 0.21967 11.7803C0.0790176 11.6397 0 11.4489 0 11.25C0 11.0511 0.0790176 10.8603 0.21967 10.7197C0.360322 10.579 0.551088 10.5 0.75 10.5H3.3675L7.82062 4.36781C7.95557 4.18253 8.13118 4.03065 8.33397 3.92381C8.53676 3.81698 8.76134 3.75804 8.99046 3.75152C9.21958 3.745 9.44714 3.79108 9.65568 3.88621C9.86422 3.98135 10.0482 4.12301 10.1934 4.30031L11.3981 5.69719L11.4169 5.71875C11.4867 5.80644 11.5754 5.87726 11.6763 5.92594C11.7773 5.97461 11.8879 5.99989 12 5.99989C12.1121 5.99989 12.2227 5.97461 12.3237 5.92594C12.4246 5.87726 12.5133 5.80644 12.5831 5.71875L12.6019 5.69719L13.8066 4.30031C13.9518 4.12301 14.1358 3.98135 14.3443 3.88621C14.5529 3.79108 14.7804 3.745 15.0095 3.75152C15.2387 3.75804 15.4632 3.81698 15.666 3.92381C15.8688 4.03065 16.0444 4.18253 16.1794 4.36781L20.6325 10.5H23.25C23.4489 10.5 23.6397 10.579 23.7803 10.7197C23.921 10.8603 24 11.0511 24 11.25ZM16.875 13.5C16.0449 13.5002 15.2441 13.8062 14.6254 14.3596C14.0068 14.9131 13.6138 15.6751 13.5216 16.5H10.4784C10.386 15.6758 9.99334 14.9146 9.37539 14.3614C8.75745 13.8083 7.95748 13.5021 7.12815 13.5012C6.29882 13.5003 5.49819 13.8048 4.87904 14.3565C4.25989 14.9083 3.86557 15.6687 3.77133 16.4927C3.67709 17.3166 3.88953 18.1465 4.3681 18.8238C4.84667 19.5011 5.55788 19.9785 6.36599 20.1649C7.17411 20.3512 8.02256 20.2336 8.74944 19.8343C9.47632 19.435 10.0307 18.782 10.3069 18H13.6931C13.8994 18.5834 14.262 19.0988 14.7414 19.49C15.2209 19.8811 15.7986 20.133 16.4115 20.218C17.0243 20.303 17.6488 20.2179 18.2166 19.972C18.7843 19.726 19.2736 19.3287 19.6308 18.8235C19.988 18.3183 20.1995 17.7246 20.2421 17.1073C20.2847 16.49 20.1568 15.8729 19.8723 15.3234C19.5879 14.774 19.1578 14.3132 18.6292 13.9916C18.1006 13.6701 17.4938 13.5 16.875 13.5Z" fill="black"/>
</svg>
