<svg width="24" height="24" viewBox="0 0 24 24" fill="none" xmlns="http://www.w3.org/2000/svg">
<g clip-path="url(#clip0_2087_448)">
<path d="M11.25 6.03469V1.5C11.25 1.30109 11.171 1.11032 11.0303 0.96967C10.8897 0.829018 10.6989 0.75 10.5 0.75C10.3011 0.75 10.1103 0.829018 9.96968 0.96967C9.82903 1.11032 9.75001 1.30109 9.75001 1.5V6.03469C7.63575 6.22769 5.67729 7.22833 4.28198 8.82847C2.88668 10.4286 2.16195 12.5051 2.25855 14.6259C2.35515 16.7468 3.26565 18.7487 4.80064 20.2154C6.33564 21.6821 8.37696 22.5005 10.5 22.5005C12.6231 22.5005 14.6644 21.6821 16.1994 20.2154C17.7344 18.7487 18.6449 16.7468 18.7415 14.6259C18.8381 12.5051 18.1133 10.4286 16.718 8.82847C15.3227 7.22833 13.3643 6.22769 11.25 6.03469ZM17.2069 13.5H14.2284C14.0869 10.8412 13.2169 8.96625 12.4059 7.77563C13.6799 8.1529 14.8145 8.89696 15.6683 9.91496C16.5221 10.933 17.0572 12.1798 17.2069 13.5ZM8.27251 15H12.7275C12.54 18.1425 11.2153 19.9641 10.5 20.7262C9.78376 19.9622 8.45907 18.1416 8.27251 15ZM8.27251 13.5C8.46001 10.3575 9.7847 8.53594 10.5 7.77375C11.2163 8.53781 12.5409 10.3584 12.7275 13.5H8.27251ZM8.59407 7.77563C7.78126 8.96625 6.91313 10.8412 6.77157 13.5H3.79313C3.94282 12.1798 4.47793 10.933 5.33171 9.91496C6.18549 8.89696 7.32013 8.1529 8.59407 7.77563ZM3.79313 15H6.77157C6.91313 17.6588 7.78313 19.5338 8.59407 20.7244C7.32013 20.3471 6.18549 19.603 5.33171 18.585C4.47793 17.567 3.94282 16.3202 3.79313 15ZM12.4059 20.7244C13.2169 19.5338 14.0869 17.6588 14.2284 15H17.2069C17.0572 16.3202 16.5221 17.567 15.6683 18.585C14.8145 19.603 13.6799 20.3471 12.4059 20.7244ZM24 8.25C24 8.44891 23.921 8.63968 23.7803 8.78033C23.6397 8.92098 23.4489 9 23.25 9H22.5V9.75C22.5 9.94891 22.421 10.1397 22.2803 10.2803C22.1397 10.421 21.9489 10.5 21.75 10.5C21.5511 10.5 21.3603 10.421 21.2197 10.2803C21.079 10.1397 21 9.94891 21 9.75V9H20.25C20.0511 9 19.8603 8.92098 19.7197 8.78033C19.579 8.63968 19.5 8.44891 19.5 8.25C19.5 8.05109 19.579 7.86032 19.7197 7.71967C19.8603 7.57902 20.0511 7.5 20.25 7.5H21V6.75C21 6.55109 21.079 6.36032 21.2197 6.21967C21.3603 6.07902 21.5511 6 21.75 6C21.9489 6 22.1397 6.07902 22.2803 6.21967C22.421 6.36032 22.5 6.55109 22.5 6.75V7.5H23.25C23.4489 7.5 23.6397 7.57902 23.7803 7.71967C23.921 7.86032 24 8.05109 24 8.25ZM14.25 3.75C14.25 3.55109 14.329 3.36032 14.4697 3.21967C14.6103 3.07902 14.8011 3 15 3H16.5V1.5C16.5 1.30109 16.579 1.11032 16.7197 0.96967C16.8603 0.829018 17.0511 0.75 17.25 0.75C17.4489 0.75 17.6397 0.829018 17.7803 0.96967C17.921 1.11032 18 1.30109 18 1.5V3H19.5C19.6989 3 19.8897 3.07902 20.0303 3.21967C20.171 3.36032 20.25 3.55109 20.25 3.75C20.25 3.94891 20.171 4.13968 20.0303 4.28033C19.8897 4.42098 19.6989 4.5 19.5 4.5H18V6C18 6.19891 17.921 6.38968 17.7803 6.53033C17.6397 6.67098 17.4489 6.75 17.25 6.75C17.0511 6.75 16.8603 6.67098 16.7197 6.53033C16.579 6.38968 16.5 6.19891 16.5 6V4.5H15C14.8011 4.5 14.6103 4.42098 14.4697 4.28033C14.329 4.13968 14.25 3.94891 14.25 3.75Z" fill="black"/>
</g>
<defs>
<clipPath id="clip0_2087_448">
<rect width="24" height="24" fill="white"/>
</clipPath>
</defs>
</svg>
