<svg width="24" height="24" viewBox="0 0 24 24" fill="none" xmlns="http://www.w3.org/2000/svg">
<path opacity="0.2" d="M7.5 12C7.5 12.445 7.36804 12.88 7.12081 13.25C6.87357 13.62 6.52217 13.9084 6.11104 14.0787C5.6999 14.249 5.2475 14.2936 4.81105 14.2068C4.37459 14.12 3.97368 13.9057 3.65901 13.591C3.34434 13.2763 3.13005 12.8754 3.04323 12.439C2.95642 12.0025 3.00097 11.5501 3.17127 11.139C3.34157 10.7278 3.62996 10.3764 3.99997 10.1292C4.36998 9.88196 4.80499 9.75 5.25 9.75C5.84674 9.75 6.41903 9.98705 6.84099 10.409C7.26295 10.831 7.5 11.4033 7.5 12ZM14.25 9.75C13.805 9.75 13.37 9.88196 13 10.1292C12.63 10.3764 12.3416 10.7278 12.1713 11.139C12.001 11.5501 11.9564 12.0025 12.0432 12.439C12.1301 12.8754 12.3443 13.2763 12.659 13.591C12.9737 13.9057 13.3746 14.12 13.811 14.2068C14.2475 14.2936 14.6999 14.249 15.111 14.0787C15.5222 13.9084 15.8736 13.62 16.1208 13.25C16.368 12.88 16.5 12.445 16.5 12C16.5 11.4033 16.2629 10.831 15.841 10.409C15.419 9.98705 14.8467 9.75 14.25 9.75Z" fill="black"/>
<path d="M16.5 3C14.5678 3 12.9113 4.7025 12 7.29844C11.0887 4.7025 9.43219 3 7.5 3C4.55625 3 2.25 6.95344 2.25 12C2.25 17.0466 4.55625 21 7.5 21C9.43219 21 11.0887 19.2975 12 16.7016C12.9113 19.2975 14.5678 21 16.5 21C19.4438 21 21.75 17.0466 21.75 12C21.75 6.95344 19.4438 3 16.5 3ZM10.0237 17.4741C9.32156 18.7612 8.40188 19.5 7.5 19.5C6.59812 19.5 5.67844 18.7612 4.97625 17.4741C4.52231 16.6132 4.19878 15.6897 4.01625 14.7338C4.47317 14.9403 4.97457 15.029 5.47461 14.9917C5.97464 14.9545 6.45737 14.7925 6.87867 14.5206C7.29996 14.2487 7.64638 13.8755 7.88625 13.4352C8.12613 12.9948 8.25181 12.5014 8.25181 12C8.25181 11.4986 8.12613 11.0052 7.88625 10.5648C7.64638 10.1245 7.29996 9.75133 6.87867 9.47942C6.45737 9.2075 5.97464 9.04552 5.47461 9.00828C4.97457 8.97105 4.47317 9.05974 4.01625 9.26625C4.19878 8.31031 4.52231 7.38679 4.97625 6.52594C5.67844 5.23875 6.59812 4.5 7.5 4.5C8.40188 4.5 9.32156 5.23875 10.0237 6.52594C10.8141 7.97531 11.25 9.91969 11.25 12C11.25 14.0803 10.8141 16.0247 10.0237 17.4741ZM3.75 12C3.75 11.7033 3.83797 11.4133 4.0028 11.1666C4.16762 10.92 4.40189 10.7277 4.67597 10.6142C4.95006 10.5006 5.25166 10.4709 5.54264 10.5288C5.83361 10.5867 6.10088 10.7296 6.31066 10.9393C6.52044 11.1491 6.6633 11.4164 6.72118 11.7074C6.77906 11.9983 6.74935 12.2999 6.63582 12.574C6.52229 12.8481 6.33003 13.0824 6.08336 13.2472C5.83668 13.412 5.54667 13.5 5.25 13.5C4.85218 13.5 4.47064 13.342 4.18934 13.0607C3.90804 12.7794 3.75 12.3978 3.75 12ZM19.0238 17.4741C18.3216 18.7612 17.4019 19.5 16.5 19.5C15.5981 19.5 14.6784 18.7612 13.9762 17.4741C13.5223 16.6132 13.1988 15.6897 13.0162 14.7338C13.4732 14.9403 13.9746 15.029 14.4746 14.9917C14.9746 14.9545 15.4574 14.7925 15.8787 14.5206C16.3 14.2487 16.6464 13.8755 16.8863 13.4352C17.1261 12.9948 17.2518 12.5014 17.2518 12C17.2518 11.4986 17.1261 11.0052 16.8863 10.5648C16.6464 10.1245 16.3 9.75133 15.8787 9.47942C15.4574 9.2075 14.9746 9.04552 14.4746 9.00828C13.9746 8.97105 13.4732 9.05974 13.0162 9.26625C13.1988 8.31031 13.5223 7.38679 13.9762 6.52594C14.6784 5.23875 15.5981 4.5 16.5 4.5C17.4019 4.5 18.3216 5.23875 19.0238 6.52594C19.8141 7.97531 20.25 9.91969 20.25 12C20.25 14.0803 19.8141 16.0247 19.0238 17.4741ZM12.75 12C12.75 11.7033 12.838 11.4133 13.0028 11.1666C13.1676 10.92 13.4019 10.7277 13.676 10.6142C13.9501 10.5006 14.2517 10.4709 14.5426 10.5288C14.8336 10.5867 15.1009 10.7296 15.3107 10.9393C15.5204 11.1491 15.6633 11.4164 15.7212 11.7074C15.7791 11.9983 15.7494 12.2999 15.6358 12.574C15.5223 12.8481 15.33 13.0824 15.0834 13.2472C14.8367 13.412 14.5467 13.5 14.25 13.5C13.8522 13.5 13.4706 13.342 13.1893 13.0607C12.908 12.7794 12.75 12.3978 12.75 12Z" fill="black"/>
</svg>
