<svg width="24" height="24" viewBox="0 0 24 24" fill="none" xmlns="http://www.w3.org/2000/svg">
<path d="M13.5 13.875C13.5 14.2458 13.39 14.6084 13.184 14.9167C12.978 15.225 12.6851 15.4654 12.3425 15.6073C11.9999 15.7492 11.6229 15.7863 11.2592 15.714C10.8955 15.6416 10.5614 15.463 10.2992 15.2008C10.037 14.9386 9.85837 14.6045 9.78603 14.2408C9.71368 13.8771 9.75081 13.5001 9.89273 13.1575C10.0346 12.8149 10.275 12.522 10.5833 12.316C10.8916 12.11 11.2542 12 11.625 12C12.1223 12 12.5992 12.1975 12.9508 12.5492C13.3025 12.9008 13.5 13.3777 13.5 13.875ZM20.25 8.25V20.25C20.25 20.6478 20.092 21.0294 19.8107 21.3107C19.5294 21.592 19.1478 21.75 18.75 21.75H5.25C4.85218 21.75 4.47064 21.592 4.18934 21.3107C3.90804 21.0294 3.75 20.6478 3.75 20.25V3.75C3.75 3.35218 3.90804 2.97064 4.18934 2.68934C4.47064 2.40804 4.85218 2.25 5.25 2.25H14.25C14.3485 2.24992 14.4461 2.26926 14.5371 2.3069C14.6282 2.34454 14.7109 2.39975 14.7806 2.46938L20.0306 7.71938C20.1003 7.78908 20.1555 7.87182 20.1931 7.96286C20.2307 8.05391 20.2501 8.15148 20.25 8.25ZM15.5306 16.7194L14.4806 15.6703C14.9233 14.967 15.0912 14.1252 14.9524 13.3058C14.8137 12.4865 14.3779 11.747 13.7283 11.2286C13.0788 10.7102 12.261 10.4494 11.4313 10.4958C10.6016 10.5423 9.81804 10.8928 9.23042 11.4804C8.64279 12.068 8.29226 12.8516 8.24581 13.6813C8.19936 14.511 8.46024 15.3288 8.9786 15.9783C9.49697 16.6279 10.2365 17.0637 11.0558 17.2024C11.8752 17.3412 12.717 17.1733 13.4203 16.7306L14.4694 17.7806C14.5391 17.8503 14.6218 17.9056 14.7128 17.9433C14.8039 17.981 14.9015 18.0004 15 18.0004C15.0985 18.0004 15.1961 17.981 15.2872 17.9433C15.3782 17.9056 15.4609 17.8503 15.5306 17.7806C15.6003 17.7109 15.6556 17.6282 15.6933 17.5372C15.731 17.4461 15.7504 17.3485 15.7504 17.25C15.7504 17.1515 15.731 17.0539 15.6933 16.9628C15.6556 16.8718 15.6003 16.7891 15.5306 16.7194ZM18.375 8.25L14.25 4.125V8.25H18.375Z" fill="black"/>
</svg>
