<svg width="24" height="24" viewBox="0 0 24 24" fill="none" xmlns="http://www.w3.org/2000/svg">
<path opacity="0.2" d="M19.5 8.25H14.25V3L19.5 8.25Z" fill="black"/>
<path d="M20.0306 7.71938L14.7806 2.46938C14.7109 2.39975 14.6282 2.34454 14.5371 2.3069C14.4461 2.26926 14.3485 2.24992 14.25 2.25H5.25C4.85218 2.25 4.47064 2.40804 4.18934 2.68934C3.90804 2.97064 3.75 3.35218 3.75 3.75V20.25C3.75 20.6478 3.90804 21.0294 4.18934 21.3107C4.47064 21.592 4.85218 21.75 5.25 21.75H18.75C19.1478 21.75 19.5294 21.592 19.8107 21.3107C20.092 21.0294 20.25 20.6478 20.25 20.25V8.25C20.2501 8.15148 20.2307 8.05391 20.1931 7.96286C20.1555 7.87182 20.1003 7.78908 20.0306 7.71938ZM15 4.81031L17.6897 7.5H15V4.81031ZM18.75 20.25H5.25V3.75H13.5V8.25C13.5 8.44891 13.579 8.63968 13.7197 8.78033C13.8603 8.92098 14.0511 9 14.25 9H18.75V20.25ZM14.4806 15.6703C14.9233 14.967 15.0912 14.1252 14.9524 13.3058C14.8137 12.4865 14.3779 11.747 13.7283 11.2286C13.0788 10.7102 12.261 10.4494 11.4313 10.4958C10.6016 10.5423 9.81804 10.8928 9.23042 11.4804C8.64279 12.068 8.29226 12.8516 8.24581 13.6813C8.19936 14.511 8.46024 15.3288 8.9786 15.9783C9.49697 16.6279 10.2365 17.0637 11.0558 17.2024C11.8752 17.3412 12.717 17.1733 13.4203 16.7306L14.4694 17.7806C14.5391 17.8503 14.6218 17.9056 14.7128 17.9433C14.8039 17.981 14.9015 18.0004 15 18.0004C15.0985 18.0004 15.1961 17.981 15.2872 17.9433C15.3782 17.9056 15.4609 17.8503 15.5306 17.7806C15.6003 17.7109 15.6556 17.6282 15.6933 17.5372C15.731 17.4461 15.7504 17.3485 15.7504 17.25C15.7504 17.1515 15.731 17.0539 15.6933 16.9628C15.6556 16.8718 15.6003 16.7891 15.5306 16.7194L14.4806 15.6703ZM9.75 13.875C9.75 13.5042 9.85997 13.1416 10.066 12.8333C10.272 12.525 10.5649 12.2846 10.9075 12.1427C11.2501 12.0008 11.6271 11.9637 11.9908 12.036C12.3545 12.1084 12.6886 12.287 12.9508 12.5492C13.213 12.8114 13.3916 13.1455 13.464 13.5092C13.5363 13.8729 13.4992 14.2499 13.3573 14.5925C13.2154 14.9351 12.975 15.228 12.6667 15.434C12.3584 15.64 11.9958 15.75 11.625 15.75C11.1277 15.75 10.6508 15.5525 10.2992 15.2008C9.94754 14.8492 9.75 14.3723 9.75 13.875Z" fill="black"/>
</svg>
