<svg width="24" height="24" viewBox="0 0 24 24" fill="none" xmlns="http://www.w3.org/2000/svg">
<path opacity="0.2" d="M21 8.25V18.8334C21 19.0102 20.9298 19.1798 20.8048 19.3048C20.6798 19.4298 20.5102 19.5 20.3334 19.5H3.75C3.55109 19.5 3.36032 19.421 3.21967 19.2803C3.07902 19.1397 3 18.9489 3 18.75V6C3 5.80109 3.07902 5.61032 3.21967 5.46967C3.36032 5.32902 3.55109 5.25 3.75 5.25H8.74969C8.91197 5.25 9.06987 5.30263 9.19969 5.4L12 7.5H20.25C20.4489 7.5 20.6397 7.57902 20.7803 7.71967C20.921 7.86032 21 8.05109 21 8.25Z" fill="black"/>
<path d="M20.25 6.75H12.2503L9.64969 4.8C9.38967 4.60599 9.07411 4.5008 8.74969 4.5H3.75C3.35218 4.5 2.97064 4.65804 2.68934 4.93934C2.40804 5.22064 2.25 5.60218 2.25 6V18.75C2.25 19.1478 2.40804 19.5294 2.68934 19.8107C2.97064 20.092 3.35218 20.25 3.75 20.25H20.3334C20.709 20.2495 21.069 20.1001 21.3346 19.8346C21.6001 19.569 21.7495 19.209 21.75 18.8334V8.25C21.75 7.85218 21.592 7.47064 21.3107 7.18934C21.0294 6.90804 20.6478 6.75 20.25 6.75ZM20.25 18.75H3.75V6H8.74969L11.55 8.1C11.6798 8.19737 11.8377 8.25 12 8.25H20.25V18.75Z" fill="black"/>
</svg>
