<svg width="24" height="24" viewBox="0 0 24 24" fill="none" xmlns="http://www.w3.org/2000/svg">
<path d="M20.25 3.75H3.75C3.35218 3.75 2.97064 3.90804 2.68934 4.18934C2.40804 4.47064 2.25 4.85218 2.25 5.25V18.75C2.25 19.1478 2.40804 19.5294 2.68934 19.8107C2.97064 20.092 3.35218 20.25 3.75 20.25H20.25C20.6478 20.25 21.0294 20.092 21.3107 19.8107C21.592 19.5294 21.75 19.1478 21.75 18.75V5.25C21.75 4.85218 21.592 4.47064 21.3107 4.18934C21.0294 3.90804 20.6478 3.75 20.25 3.75ZM8.25 18H5.25C5.05109 18 4.86032 17.921 4.71967 17.7803C4.57902 17.6397 4.5 17.4489 4.5 17.25V14.25C4.5 14.0511 4.57902 13.8603 4.71967 13.7197C4.86032 13.579 5.05109 13.5 5.25 13.5C5.44891 13.5 5.63968 13.579 5.78033 13.7197C5.92098 13.8603 6 14.0511 6 14.25V16.5H8.25C8.44891 16.5 8.63968 16.579 8.78033 16.7197C8.92098 16.8603 9 17.0511 9 17.25C9 17.4489 8.92098 17.6397 8.78033 17.7803C8.63968 17.921 8.44891 18 8.25 18ZM19.5 9.75C19.5 9.94891 19.421 10.1397 19.2803 10.2803C19.1397 10.421 18.9489 10.5 18.75 10.5C18.5511 10.5 18.3603 10.421 18.2197 10.2803C18.079 10.1397 18 9.94891 18 9.75V7.5H15.75C15.5511 7.5 15.3603 7.42098 15.2197 7.28033C15.079 7.13968 15 6.94891 15 6.75C15 6.55109 15.079 6.36032 15.2197 6.21967C15.3603 6.07902 15.5511 6 15.75 6H18.75C18.9489 6 19.1397 6.07902 19.2803 6.21967C19.421 6.36032 19.5 6.55109 19.5 6.75V9.75Z" fill="black"/>
</svg>
