<svg width="24" height="24" viewBox="0 0 24 24" fill="none" xmlns="http://www.w3.org/2000/svg">
<path d="M18.75 7.5V10.5C18.75 10.6989 18.671 10.8897 18.5303 11.0303C18.3897 11.171 18.1989 11.25 18 11.25C17.8011 11.25 17.6103 11.171 17.4697 11.0303C17.329 10.8897 17.25 10.6989 17.25 10.5V8.25H15C14.8011 8.25 14.6103 8.17098 14.4697 8.03033C14.329 7.88968 14.25 7.69891 14.25 7.5C14.25 7.30109 14.329 7.11032 14.4697 6.96967C14.6103 6.82902 14.8011 6.75 15 6.75H18C18.1989 6.75 18.3897 6.82902 18.5303 6.96967C18.671 7.11032 18.75 7.30109 18.75 7.5ZM9 15.75H6.75V13.5C6.75 13.3011 6.67098 13.1103 6.53033 12.9697C6.38968 12.829 6.19891 12.75 6 12.75C5.80109 12.75 5.61032 12.829 5.46967 12.9697C5.32902 13.1103 5.25 13.3011 5.25 13.5V16.5C5.25 16.6989 5.32902 16.8897 5.46967 17.0303C5.61032 17.171 5.80109 17.25 6 17.25H9C9.19891 17.25 9.38968 17.171 9.53033 17.0303C9.67098 16.8897 9.75 16.6989 9.75 16.5C9.75 16.3011 9.67098 16.1103 9.53033 15.9697C9.38968 15.829 9.19891 15.75 9 15.75ZM21.75 5.25V18.75C21.75 19.1478 21.592 19.5294 21.3107 19.8107C21.0294 20.092 20.6478 20.25 20.25 20.25H3.75C3.35218 20.25 2.97064 20.092 2.68934 19.8107C2.40804 19.5294 2.25 19.1478 2.25 18.75V5.25C2.25 4.85218 2.40804 4.47064 2.68934 4.18934C2.97064 3.90804 3.35218 3.75 3.75 3.75H20.25C20.6478 3.75 21.0294 3.90804 21.3107 4.18934C21.592 4.47064 21.75 4.85218 21.75 5.25ZM20.25 18.75V5.25H3.75V18.75H20.25Z" fill="black"/>
</svg>
