<svg width="24" height="24" viewBox="0 0 24 24" fill="none" xmlns="http://www.w3.org/2000/svg">
<path d="M22.8112 10.9397L21.3112 9.43968C21.0568 9.18557 20.7196 9.0313 20.361 9.00497C20.0024 8.97865 19.6463 9.08201 19.3575 9.29624L14.7037 4.64249C14.9181 4.35382 15.0216 3.99775 14.9955 3.63914C14.9693 3.28054 14.8152 2.94326 14.5612 2.68874L13.0612 1.18874C12.9219 1.04942 12.7566 0.9389 12.5746 0.863496C12.3926 0.788093 12.1975 0.749283 12.0005 0.749283C11.8034 0.749283 11.6084 0.788093 11.4264 0.863496C11.2443 0.9389 11.079 1.04942 10.9397 1.18874L4.93968 7.18874C4.80035 7.32804 4.68983 7.49341 4.61443 7.67542C4.53903 7.85743 4.50022 8.05251 4.50022 8.24953C4.50022 8.44654 4.53903 8.64162 4.61443 8.82363C4.68983 9.00564 4.80035 9.17101 4.93968 9.31031L6.43968 10.8103C6.69414 11.064 7.03124 11.218 7.38963 11.2441C7.74802 11.2703 8.10389 11.1669 8.39249 10.9528L9.06468 11.625L2.9353 17.7544C2.52809 18.1997 2.30835 18.785 2.32184 19.3883C2.33534 19.9916 2.58101 20.5665 3.00773 20.9932C3.43444 21.4199 4.0093 21.6656 4.61261 21.6791C5.21593 21.6926 5.80119 21.4728 6.24655 21.0656L12.375 14.9362L13.0472 15.6075C12.8328 15.8962 12.7293 16.2522 12.7555 16.6108C12.7816 16.9694 12.9357 17.3067 13.1897 17.5612L14.6897 19.0612C14.829 19.2006 14.9943 19.3111 15.1764 19.3865C15.3584 19.4619 15.5534 19.5007 15.7505 19.5007C15.9475 19.5007 16.1426 19.4619 16.3246 19.3865C16.5066 19.3111 16.6719 19.2006 16.8112 19.0612L22.8112 13.0612C22.9506 12.922 23.0611 12.7566 23.1365 12.5746C23.2119 12.3926 23.2507 12.1975 23.2507 12.0005C23.2507 11.8035 23.2119 11.6084 23.1365 11.4264C23.0611 11.2443 22.9506 11.079 22.8112 10.9397ZM7.49999 9.74999L5.99999 8.24999L12 2.24999L13.5 3.74999L7.49999 9.74999ZM5.18624 20.0044C5.02815 20.1615 4.8143 20.2497 4.5914 20.2497C4.36849 20.2497 4.15464 20.1615 3.99655 20.0044C3.83969 19.8463 3.75166 19.6327 3.75166 19.41C3.75166 19.1873 3.83969 18.9737 3.99655 18.8156L10.125 12.6862L11.3147 13.875L5.18624 20.0044ZM9.46874 9.90562L13.6556 5.71874L18.2812 10.3444L14.0953 14.5312L9.46874 9.90562ZM15.75 18L14.25 16.5L14.625 16.125L19.875 10.875L20.25 10.5L21.75 12L15.75 18Z" fill="black"/>
</svg>
