<svg width="24" height="24" viewBox="0 0 24 24" fill="none" xmlns="http://www.w3.org/2000/svg">
<path opacity="0.2" d="M14.0306 4.28062L8.03064 10.2806C7.96098 10.3504 7.87826 10.4057 7.78722 10.4434C7.69617 10.4812 7.59857 10.5006 7.50001 10.5006C7.40145 10.5006 7.30385 10.4812 7.21281 10.4434C7.12176 10.4057 7.03904 10.3504 6.96938 10.2806L5.46939 8.78062C5.39965 8.71097 5.34433 8.62825 5.30659 8.5372C5.26885 8.44615 5.24942 8.34856 5.24942 8.25C5.24942 8.15143 5.26885 8.05384 5.30659 7.96279C5.34433 7.87174 5.39965 7.78902 5.46939 7.71937L11.4694 1.71937C11.539 1.64964 11.6218 1.59432 11.7128 1.55658C11.8039 1.51883 11.9014 1.4994 12 1.4994C12.0986 1.4994 12.1962 1.51883 12.2872 1.55658C12.3783 1.59432 12.461 1.64964 12.5306 1.71937L14.0306 3.21937C14.1004 3.28902 14.1557 3.37174 14.1934 3.46279C14.2312 3.55384 14.2506 3.65143 14.2506 3.74999C14.2506 3.84856 14.2312 3.94615 14.1934 4.0372C14.1557 4.12825 14.1004 4.21097 14.0306 4.28062ZM22.2806 11.4694L20.7806 9.96937C20.711 9.89964 20.6283 9.84432 20.5372 9.80658C20.4462 9.76883 20.3486 9.7494 20.25 9.7494C20.1514 9.7494 20.0539 9.76883 19.9628 9.80658C19.8718 9.84432 19.789 9.89964 19.7194 9.96937L13.7194 15.9694C13.6497 16.039 13.5943 16.1217 13.5566 16.2128C13.5188 16.3038 13.4994 16.4014 13.4994 16.5C13.4994 16.5986 13.5188 16.6962 13.5566 16.7872C13.5943 16.8782 13.6497 16.961 13.7194 17.0306L15.2194 18.5306C15.289 18.6004 15.3718 18.6557 15.4628 18.6934C15.5539 18.7312 15.6514 18.7506 15.75 18.7506C15.8486 18.7506 15.9462 18.7312 16.0372 18.6934C16.1283 18.6557 16.211 18.6004 16.2806 18.5306L22.2806 12.5306C22.3504 12.461 22.4057 12.3782 22.4434 12.2872C22.4812 12.1962 22.5006 12.0986 22.5006 12C22.5006 11.9014 22.4812 11.8038 22.4434 11.7128C22.4057 11.6217 22.3504 11.539 22.2806 11.4694Z" fill="black"/>
<path d="M22.8112 10.9397L21.3112 9.43968C21.0568 9.18557 20.7196 9.0313 20.361 9.00497C20.0024 8.97865 19.6463 9.08201 19.3575 9.29624L14.7037 4.64249C14.9181 4.35382 15.0216 3.99775 14.9955 3.63914C14.9693 3.28054 14.8152 2.94326 14.5612 2.68874L13.0612 1.18874C12.9219 1.04942 12.7566 0.9389 12.5746 0.863496C12.3926 0.788093 12.1975 0.749283 12.0005 0.749283C11.8034 0.749283 11.6084 0.788093 11.4264 0.863496C11.2443 0.9389 11.079 1.04942 10.9397 1.18874L4.93968 7.18874C4.80035 7.32804 4.68983 7.49341 4.61443 7.67542C4.53903 7.85743 4.50022 8.05251 4.50022 8.24953C4.50022 8.44654 4.53903 8.64162 4.61443 8.82363C4.68983 9.00564 4.80035 9.17101 4.93968 9.31031L6.43968 10.8103C6.69414 11.064 7.03124 11.218 7.38963 11.2441C7.74802 11.2703 8.10389 11.1669 8.39249 10.9528L9.06468 11.625L2.9353 17.7544C2.52809 18.1997 2.30835 18.785 2.32184 19.3883C2.33534 19.9916 2.58101 20.5665 3.00773 20.9932C3.43444 21.4199 4.0093 21.6656 4.61261 21.6791C5.21593 21.6926 5.80119 21.4728 6.24655 21.0656L12.375 14.9362L13.0472 15.6075C12.8328 15.8962 12.7293 16.2522 12.7555 16.6108C12.7816 16.9694 12.9357 17.3067 13.1897 17.5612L14.6897 19.0612C14.829 19.2006 14.9943 19.3111 15.1764 19.3865C15.3584 19.4619 15.5534 19.5007 15.7505 19.5007C15.9475 19.5007 16.1426 19.4619 16.3246 19.3865C16.5066 19.3111 16.6719 19.2006 16.8112 19.0612L22.8112 13.0612C22.9506 12.922 23.0611 12.7566 23.1365 12.5746C23.2119 12.3926 23.2507 12.1975 23.2507 12.0005C23.2507 11.8035 23.2119 11.6084 23.1365 11.4264C23.0611 11.2443 22.9506 11.079 22.8112 10.9397ZM7.49999 9.74999L5.99999 8.24999L12 2.24999L13.5 3.74999L7.49999 9.74999ZM5.18624 20.0044C5.02815 20.1615 4.8143 20.2497 4.5914 20.2497C4.36849 20.2497 4.15464 20.1615 3.99655 20.0044C3.83969 19.8463 3.75166 19.6327 3.75166 19.41C3.75166 19.1873 3.83969 18.9737 3.99655 18.8156L10.125 12.6862L11.3147 13.875L5.18624 20.0044ZM9.46874 9.90562L13.6556 5.71874L18.2812 10.3444L14.0953 14.5312L9.46874 9.90562ZM15.75 18L14.25 16.5L14.625 16.125L19.875 10.875L20.25 10.5L21.75 12L15.75 18Z" fill="black"/>
</svg>
