<svg width="24" height="24" viewBox="0 0 24 24" fill="none" xmlns="http://www.w3.org/2000/svg">
<path d="M4.93969 9.31031C4.80037 9.17102 4.68985 9.00565 4.61445 8.82364C4.53904 8.64162 4.50023 8.44654 4.50023 8.24953C4.50023 8.05252 4.53904 7.85744 4.61445 7.67543C4.68985 7.49342 4.80037 7.32804 4.93969 7.18875L10.9397 1.18875C11.221 0.907412 11.6026 0.749359 12.0005 0.749359C12.3983 0.749359 12.7799 0.907412 13.0613 1.18875C13.3426 1.47009 13.5006 1.85166 13.5006 2.24953C13.5006 2.6474 13.3426 3.02898 13.0613 3.31031L7.06126 9.31031C6.92196 9.44964 6.75659 9.56016 6.57458 9.63556C6.39257 9.71096 6.19749 9.74977 6.00047 9.74977C5.80346 9.74977 5.60838 9.71096 5.42637 9.63556C5.24436 9.56016 5.07899 9.44964 4.93969 9.31031ZM22.8113 10.9387C22.672 10.7994 22.5066 10.6889 22.3246 10.6135C22.1426 10.5381 21.9475 10.4993 21.7505 10.4993C21.5535 10.4993 21.3584 10.5381 21.1764 10.6135C20.9944 10.6889 20.829 10.7994 20.6897 10.9387L14.6897 16.9387C14.5504 17.078 14.4398 17.2434 14.3644 17.4254C14.289 17.6074 14.2502 17.8025 14.2502 17.9995C14.2502 18.1965 14.289 18.3916 14.3644 18.5736C14.4398 18.7556 14.5504 18.921 14.6897 19.0603C14.829 19.1996 14.9944 19.3102 15.1764 19.3856C15.3584 19.461 15.5535 19.4998 15.7505 19.4998C15.9475 19.4998 16.1426 19.461 16.3246 19.3856C16.5066 19.3102 16.672 19.1996 16.8113 19.0603L22.8113 13.0603C22.9506 12.921 23.0611 12.7556 23.1365 12.5736C23.2119 12.3916 23.2507 12.1965 23.2507 11.9995C23.2507 11.8025 23.2119 11.6074 23.1365 11.4254C23.0611 11.2434 22.9506 11.078 22.8113 10.9387ZM19.5197 9.4575L14.5425 4.48031C14.5077 4.44545 14.4663 4.41779 14.4208 4.39891C14.3753 4.38004 14.3265 4.37033 14.2772 4.37033C14.2279 4.37033 14.1791 4.38004 14.1336 4.39891C14.0881 4.41779 14.0467 4.44545 14.0119 4.48031L8.23126 10.2609C8.19639 10.2958 8.16873 10.3371 8.14986 10.3826C8.13099 10.4282 8.12127 10.477 8.12127 10.5262C8.12127 10.5755 8.13099 10.6243 8.14986 10.6699C8.16873 10.7154 8.19639 10.7567 8.23126 10.7916L9.65626 12.2194L2.68969 19.1897C2.42026 19.4733 2.27228 19.8509 2.27728 20.242C2.28229 20.6332 2.4399 21.0069 2.7165 21.2835C2.9931 21.5601 3.36682 21.7177 3.75796 21.7227C4.1491 21.7277 4.52673 21.5797 4.81032 21.3103L11.7806 14.3437L13.2084 15.7716C13.2433 15.8064 13.2846 15.8341 13.3302 15.853C13.3757 15.8718 13.4245 15.8815 13.4738 15.8815C13.523 15.8815 13.5718 15.8718 13.6174 15.853C13.6629 15.8341 13.7042 15.8064 13.7391 15.7716L19.5197 9.99094C19.555 9.95606 19.583 9.91453 19.6021 9.86874C19.6212 9.82296 19.6311 9.77383 19.6311 9.72422C19.6311 9.6746 19.6212 9.62548 19.6021 9.57969C19.583 9.53391 19.555 9.49238 19.5197 9.4575Z" fill="black"/>
</svg>
