<svg width="24" height="24" viewBox="0 0 24 24" fill="none" xmlns="http://www.w3.org/2000/svg">
<g clip-path="url(#clip0_2092_269)">
<path opacity="0.2" d="M23.0306 12.0937L20.3438 14.7806C20.2032 14.9209 20.0127 14.9996 19.8141 14.9996C19.6155 14.9996 19.425 14.9209 19.2844 14.7806L15.7594 11.25L13.1344 13.875L10.1344 10.875L12.7594 8.24998L7.5 2.97936C9.02561 2.29015 10.7251 2.08244 12.3718 2.38395C14.0185 2.68545 15.5341 3.48182 16.7166 4.66686L23.0306 11.0315C23.1005 11.1012 23.1559 11.184 23.1938 11.2751C23.2316 11.3663 23.2511 11.464 23.2511 11.5626C23.2511 11.6613 23.2316 11.759 23.1938 11.8501C23.1559 11.9413 23.1005 12.0241 23.0306 12.0937Z" fill="black"/>
<path d="M23.5631 10.5L17.2388 4.13248C15.5497 2.44679 13.2608 1.50006 10.8745 1.50006C8.48822 1.50006 6.19938 2.44679 4.51031 4.13248L4.50188 4.14092L3.21094 5.47498C3.07721 5.61869 3.00516 5.80911 3.01025 6.00535C3.01534 6.20159 3.09717 6.38801 3.23818 6.5246C3.37918 6.66118 3.56811 6.73704 3.76441 6.73588C3.96072 6.73473 4.14874 6.65665 4.28813 6.51842L5.57531 5.18904C6.09318 4.67128 6.68415 4.23224 7.32938 3.88592L11.6888 8.24998L2.68875 17.25C2.54943 17.3893 2.43891 17.5546 2.3635 17.7367C2.2881 17.9187 2.24929 18.1138 2.24929 18.3108C2.24929 18.5078 2.2881 18.7029 2.3635 18.8849C2.43891 19.0669 2.54943 19.2323 2.68875 19.3715L4.62844 21.3112C4.76773 21.4506 4.93311 21.5611 5.11512 21.6365C5.29713 21.7119 5.49221 21.7507 5.68922 21.7507C5.88623 21.7507 6.08131 21.7119 6.26332 21.6365C6.44533 21.5611 6.61071 21.4506 6.75 21.3112L15.75 12.3112L17.0944 13.6556L18.75 15.3094C18.8893 15.4487 19.0547 15.5592 19.2367 15.6346C19.4187 15.71 19.6138 15.7488 19.8108 15.7488C20.0078 15.7488 20.2029 15.71 20.3849 15.6346C20.5669 15.5592 20.7323 15.4487 20.8716 15.3094L23.5613 12.6197C23.8423 12.3387 24.0004 11.9576 24.0007 11.5602C24.0011 11.1628 23.8437 10.7815 23.5631 10.5ZM5.68875 20.25L3.75 18.3103L10.125 11.9353L12.0638 13.875L5.68875 20.25ZM15.2194 10.7175L13.125 12.8128L11.1853 10.875L13.2806 8.77967C13.3504 8.71001 13.4057 8.6273 13.4434 8.53625C13.4812 8.4452 13.5006 8.3476 13.5006 8.24904C13.5006 8.15048 13.4812 8.05289 13.4434 7.96184C13.4057 7.87079 13.3504 7.78807 13.2806 7.71842L8.8425 3.28123C10.1248 2.9201 11.48 2.90701 12.769 3.2433C14.058 3.5796 15.2342 4.25314 16.1766 5.19467L20.3222 9.36748L17.625 12.0619L16.2806 10.7175C16.211 10.6477 16.1283 10.5924 16.0372 10.5547C15.9462 10.5169 15.8486 10.4975 15.75 10.4975C15.6514 10.4975 15.5538 10.5169 15.4628 10.5547C15.3717 10.5924 15.289 10.6477 15.2194 10.7175ZM19.8131 14.2481L18.6881 13.1231L21.375 10.4297L22.5 11.5547L19.8131 14.2481Z" fill="black"/>
</g>
<defs>
<clipPath id="clip0_2092_269">
<rect width="24" height="24" fill="white"/>
</clipPath>
</defs>
</svg>
