<svg width="24" height="24" viewBox="0 0 24 24" fill="none" xmlns="http://www.w3.org/2000/svg">
<g clip-path="url(#clip0_2092_270)">
<path d="M23.5631 10.5L17.2387 4.13248C15.5497 2.44679 13.2608 1.50006 10.8745 1.50006C8.48821 1.50006 6.19937 2.44679 4.51031 4.13248L4.50187 4.14092L3.21093 5.47498C3.0772 5.61869 3.00515 5.80911 3.01024 6.00535C3.01534 6.20159 3.09717 6.38801 3.23817 6.5246C3.37917 6.66118 3.5681 6.73704 3.7644 6.73588C3.96071 6.73473 4.14873 6.65665 4.28812 6.51842L5.57531 5.18904C6.09317 4.67128 6.68414 4.23224 7.32937 3.88592L11.6887 8.24998L2.68874 17.25C2.54942 17.3893 2.4389 17.5546 2.3635 17.7367C2.28809 17.9187 2.24928 18.1138 2.24928 18.3108C2.24928 18.5078 2.28809 18.7029 2.3635 18.8849C2.4389 19.0669 2.54942 19.2323 2.68874 19.3715L4.62843 21.3112C4.76772 21.4506 4.9331 21.5611 5.11511 21.6365C5.29712 21.7119 5.4922 21.7507 5.68921 21.7507C5.88622 21.7507 6.08131 21.7119 6.26332 21.6365C6.44533 21.5611 6.6107 21.4506 6.74999 21.3112L15.75 12.3112L18.75 15.3112C18.8893 15.4506 19.0547 15.5611 19.2367 15.6365C19.4187 15.7119 19.6138 15.7507 19.8108 15.7507C20.0078 15.7507 20.2029 15.7119 20.3849 15.6365C20.5669 15.5611 20.7323 15.4506 20.8716 15.3112L23.5612 12.6215C23.7007 12.4824 23.8114 12.3171 23.8869 12.1352C23.9625 11.9532 24.0015 11.7582 24.0016 11.5612C24.0018 11.3641 23.9632 11.169 23.8879 10.9869C23.8127 10.8049 23.7023 10.6394 23.5631 10.5ZM15.2194 10.7184L13.125 12.8128L11.1853 10.875L13.2806 8.77967C13.3504 8.71001 13.4057 8.6273 13.4434 8.53625C13.4812 8.4452 13.5006 8.3476 13.5006 8.24904C13.5006 8.15048 13.4812 8.05289 13.4434 7.96184C13.4057 7.87079 13.3504 7.78807 13.2806 7.71842L8.84249 3.28123C10.1247 2.9201 11.48 2.90701 12.769 3.2433C14.058 3.5796 15.2342 4.25314 16.1766 5.19467L20.3222 9.36748L17.625 12.0619L16.2806 10.7175C16.211 10.6477 16.1282 10.5924 16.0372 10.5547C15.9462 10.5169 15.8486 10.4975 15.75 10.4975C15.6514 10.4975 15.5538 10.5169 15.4628 10.5547C15.3717 10.5924 15.289 10.6477 15.2194 10.7175V10.7184ZM19.8131 14.249L18.6881 13.124L21.375 10.4297L22.5 11.5547L19.8131 14.249Z" fill="black"/>
</g>
<defs>
<clipPath id="clip0_2092_270">
<rect width="24" height="24" fill="white"/>
</clipPath>
</defs>
</svg>
