<svg width="24" height="24" viewBox="0 0 24 24" fill="none" xmlns="http://www.w3.org/2000/svg">
<path d="M9.05157 3.38813C8.94965 3.00881 9.00058 2.60466 9.1934 2.26248C9.38622 1.92031 9.70557 1.66741 10.0828 1.55813C10.89 1.3275 11.7375 1.83938 11.9578 2.65031L13.4578 8.25469C13.4717 8.30515 13.4748 8.35794 13.467 8.40968C13.4592 8.46142 13.4407 8.51096 13.4126 8.55511C13.3845 8.59925 13.3475 8.63704 13.304 8.66603C13.2604 8.69502 13.2113 8.71458 13.1597 8.72344C12.7447 8.79447 12.3495 8.95263 12 9.1875C11.9475 9.22219 11.8969 9.25875 11.8463 9.29719C11.8153 9.24281 11.7834 9.18844 11.7525 9.13594C11.4321 8.64904 10.9757 8.26698 10.44 8.03719C10.3885 8.01495 10.3427 7.98128 10.3062 7.93872C10.2696 7.89616 10.2433 7.84584 10.2291 7.79156L9.05157 3.38813ZM7.53751 16.5609C7.63715 16.5814 7.7386 16.5918 7.84032 16.5919C8.21206 16.5916 8.57044 16.4532 8.84597 16.2037C9.1215 15.9541 9.29455 15.6111 9.33156 15.2412C9.36858 14.8713 9.26692 14.5009 9.0463 14.2017C8.82568 13.9025 8.50182 13.6959 8.13751 13.6219L6.30095 13.2469C5.91284 13.1713 5.51059 13.252 5.18168 13.4715C4.85278 13.6909 4.62382 14.0314 4.54461 14.4187C4.46541 14.8061 4.54236 15.2091 4.75873 15.54C4.9751 15.871 5.31338 16.1031 5.70001 16.1859L7.53751 16.5609ZM5.70001 11.5922L8.94751 12.255C9.14171 12.2976 9.34245 12.3012 9.53805 12.2655C9.73364 12.2298 9.9202 12.1556 10.0869 12.0472C10.2535 11.9388 10.397 11.7983 10.5089 11.634C10.6207 11.4696 10.6988 11.2847 10.7386 11.0899C10.7784 10.8951 10.779 10.6943 10.7405 10.4992C10.702 10.3042 10.6251 10.1187 10.5142 9.95367C10.4034 9.78861 10.2609 9.64723 10.0949 9.53774C9.92895 9.42826 9.74287 9.35286 9.54751 9.31594L6.30095 8.65594C5.9112 8.57627 5.50578 8.65468 5.17384 8.87391C4.84191 9.09315 4.61065 9.43527 4.53095 9.825C4.45128 10.2147 4.52968 10.6202 4.74892 10.9521C4.96816 11.284 5.31027 11.5153 5.70001 11.595V11.5922ZM15.2625 8.95219L17.4703 9.40313C17.5634 9.42196 17.6602 9.40476 17.7411 9.35499C17.8221 9.30522 17.8811 9.2266 17.9063 9.135L19.4456 3.38813C19.5469 3.00439 19.492 2.59615 19.2929 2.25282C19.0939 1.90948 18.7668 1.65904 18.3834 1.55635C18.0001 1.45365 17.5916 1.50708 17.2476 1.70492C16.9035 1.90276 16.6519 2.22889 16.5478 2.61188L14.9728 8.49C14.9595 8.53968 14.9566 8.59157 14.9642 8.64243C14.9718 8.69329 14.9898 8.74205 15.0171 8.78566C15.0443 8.82927 15.0803 8.86681 15.1227 8.89594C15.165 8.92507 15.213 8.94518 15.2634 8.955L15.2625 8.95219ZM18.7631 11.9278C18.6026 11.6639 18.3892 11.4361 18.1364 11.2586C17.8836 11.0811 17.5968 10.9579 17.2941 10.8966L13.9566 10.2188C13.6999 10.1663 13.434 10.182 13.1854 10.2642C12.9367 10.3465 12.7139 10.4924 12.5391 10.6875C12.4463 10.7866 12.3694 10.8995 12.3113 11.0222C12.1848 11.2759 12.1328 11.5603 12.1613 11.8424C12.1899 12.1245 12.2978 12.3927 12.4725 12.6159C12.7025 12.905 13.0284 13.1022 13.3913 13.1719L14.82 13.4634C15.014 13.5029 15.1848 13.617 15.2957 13.7811C15.4065 13.9452 15.4484 14.1462 15.4125 14.3409C15.2864 14.9467 15.3784 15.5776 15.6722 16.1222C15.7624 16.28 15.7938 16.4646 15.7606 16.6433C15.7275 16.822 15.632 16.9832 15.4913 17.0981C15.4058 17.1652 15.3067 17.2128 15.201 17.2378C15.0953 17.2628 14.9854 17.2645 14.8789 17.2428C14.7725 17.2212 14.672 17.1766 14.5845 17.1123C14.4969 17.048 14.4244 16.9654 14.3719 16.8703C14.022 16.237 13.8448 15.5228 13.8581 14.7994L13.0566 14.625C12.6708 14.5473 12.3043 14.394 11.9781 14.1739C11.652 13.9537 11.3726 13.6712 11.1563 13.3425C11.1206 13.2891 11.0878 13.2347 11.0569 13.1794C10.8586 13.3306 10.6422 13.4565 10.4128 13.5544C10.6849 14.0095 10.8315 14.5287 10.8377 15.0589C10.8438 15.5891 10.7093 16.1115 10.4479 16.5729C10.1865 17.0342 9.8074 17.418 9.34934 17.6852C8.89128 17.9523 8.3706 18.0933 7.84032 18.0938C7.63785 18.0936 7.43591 18.0732 7.23751 18.0328L5.40095 17.6578H5.39532C5.35121 17.6474 5.30505 17.6494 5.26201 17.6636C5.21896 17.6779 5.18073 17.7038 5.15156 17.7385C5.12239 17.7732 5.10344 17.8153 5.09682 17.8602C5.0902 17.905 5.09617 17.9508 5.11407 17.9925C5.69938 19.3319 6.66246 20.4716 7.88545 21.2722C9.10844 22.0728 10.5383 22.4994 12 22.5H12.0572C16.1606 22.4691 19.5 19.0669 19.5 14.9156V14.6025C19.4997 13.6619 19.2455 12.7387 18.7641 11.9306L18.7631 11.9278Z" fill="black"/>
</svg>
