<svg width="24" height="24" viewBox="0 0 24 24" fill="none" xmlns="http://www.w3.org/2000/svg">
<path d="M23.8406 10.1166L21.4481 5.32969C21.36 5.1535 21.238 4.9964 21.0892 4.86736C20.9403 4.73832 20.7675 4.63986 20.5806 4.57762C20.3937 4.51537 20.1963 4.49055 19.9998 4.50458C19.8033 4.51861 19.6115 4.57121 19.4353 4.65938L17.1038 5.82469L12.1922 4.52531C12.0662 4.49252 11.9338 4.49252 11.8078 4.52531L6.89626 5.82469L4.56469 4.65938C4.38852 4.57121 4.1967 4.51861 4.0002 4.50458C3.8037 4.49055 3.60635 4.51537 3.41944 4.57762C3.23253 4.63986 3.05971 4.73832 2.91086 4.86736C2.762 4.9964 2.64002 5.1535 2.55188 5.32969L0.15938 10.1156C0.0712136 10.2918 0.0186144 10.4836 0.00458611 10.6801C-0.00944219 10.8766 0.0153751 11.074 0.0776208 11.2609C0.139867 11.4478 0.238321 11.6206 0.367363 11.7695C0.496404 11.9183 0.653505 12.0403 0.829692 12.1284L3.36094 13.395L8.56313 17.1103C8.63978 17.1649 8.72595 17.2046 8.81719 17.2275L14.8172 18.7275C14.9428 18.759 15.0745 18.7574 15.1994 18.7229C15.3242 18.6884 15.438 18.6222 15.5297 18.5306L20.6925 13.3669L23.1694 12.1284C23.525 11.9504 23.7953 11.6385 23.921 11.2613C24.0467 10.884 24.0175 10.4723 23.8397 10.1166H23.8406ZM18.6947 13.245L15.4688 10.6613C15.3242 10.5455 15.142 10.4873 14.9572 10.4979C14.7723 10.5084 14.5979 10.587 14.4675 10.7184C12.7978 12.4003 10.9369 12.1875 9.75001 11.4375L13.8038 7.5H16.7859L19.3369 12.6009L18.6947 13.245ZM3.89344 6L5.81251 6.95813L3.41532 11.7441L1.5 10.7869L3.89344 6ZM14.7684 17.1684L9.32063 15.8072L4.70813 12.5128L7.33313 7.26281L12 6.02625L12.9188 6.26906L8.70001 10.3641L8.69251 10.3725C8.5337 10.5313 8.41258 10.7237 8.33808 10.9356C8.26359 11.1475 8.23762 11.3734 8.2621 11.5966C8.28657 11.8199 8.36087 12.0348 8.4795 12.2255C8.59813 12.4162 8.75806 12.5778 8.94751 12.6984C10.875 13.9294 13.2009 13.7297 15.0328 12.2297L17.625 14.3119L14.7684 17.1684ZM20.5809 11.7431L18.1884 6.96188L20.1066 6L22.5 10.7869L20.5809 11.7431ZM12.3544 20.4309C12.3139 20.593 12.2204 20.737 12.0888 20.8399C11.9571 20.9428 11.7949 20.9988 11.6278 20.9991C11.5662 20.999 11.5048 20.9914 11.445 20.9766L7.53844 19.9997C7.44707 19.9771 7.36084 19.9374 7.28438 19.8825L4.81407 18.1181C4.66218 17.9989 4.56214 17.8256 4.53479 17.6344C4.50744 17.4433 4.55489 17.2489 4.66725 17.0919C4.77961 16.9348 4.94823 16.8271 5.13798 16.7913C5.32774 16.7554 5.52402 16.7941 5.68594 16.8994L8.04001 18.5813L11.8125 19.5225C12.0054 19.5708 12.1713 19.6937 12.2736 19.8642C12.3759 20.0347 12.4063 20.2389 12.3581 20.4319L12.3544 20.4309Z" fill="black"/>
</svg>
