<svg width="24" height="24" viewBox="0 0 24 24" fill="none" xmlns="http://www.w3.org/2000/svg">
<path d="M19.8975 2.8125C19.6372 2.36456 19.2501 2.00368 18.785 1.77531C18.32 1.54694 17.7978 1.46129 17.2841 1.52916C16.7705 1.59702 16.2884 1.81536 15.8987 2.15667C15.5089 2.49798 15.2288 2.94701 15.0938 3.44719L13.875 7.97719L12.6609 3.44719C12.5827 3.10275 12.4357 2.77766 12.2288 2.49137C12.0219 2.20508 11.7594 1.9635 11.4569 1.78108C11.1544 1.59866 10.8183 1.47915 10.4685 1.42973C10.1188 1.3803 9.76266 1.40197 9.42149 1.49343C9.08032 1.5849 8.76111 1.74427 8.483 1.96202C8.20488 2.17976 7.97356 2.4514 7.80291 2.76066C7.63226 3.06991 7.52577 3.41043 7.48983 3.76181C7.45389 4.1132 7.48924 4.46822 7.59375 4.80562L8.47313 8.08687L7.65469 7.92937C7.09515 7.81422 6.51332 7.88475 5.99749 8.13024C5.48167 8.37574 5.06001 8.78281 4.7965 9.28967C4.533 9.79653 4.44203 10.3755 4.53741 10.9388C4.63279 11.502 4.90931 12.0188 5.325 12.4106C5.06261 12.6567 4.85389 12.9544 4.71193 13.2849C4.56996 13.6155 4.49781 13.9718 4.5 14.3316V15C4.5 16.9891 5.29018 18.8968 6.6967 20.3033C8.10322 21.7098 10.0109 22.5 12 22.5H12.0572C16.1616 22.4691 19.5 19.0669 19.5 14.9156V14.6025C19.4993 13.4387 19.111 12.3083 18.3966 11.3897L20.1563 4.80562C20.2472 4.47281 20.2712 4.12526 20.2267 3.78312C20.1823 3.44097 20.0704 3.11106 19.8975 2.8125ZM9.15094 3.5625C9.26204 3.3693 9.42802 3.21346 9.62782 3.11473C9.82763 3.01601 10.0523 2.97885 10.2732 3.00798C10.4942 3.0371 10.7015 3.1312 10.8689 3.27832C11.0363 3.42545 11.1562 3.61899 11.2134 3.83437L12.5981 9.00469C12.1285 9.03342 11.6751 9.18787 11.2856 9.45187C11.2812 9.44342 11.2762 9.43528 11.2706 9.4275C10.9909 9.003 10.5925 8.67013 10.125 8.47031L9.03938 4.4175C9.00053 4.27469 8.99038 4.12559 9.00953 3.97883C9.02868 3.83207 9.07674 3.69056 9.15094 3.5625ZM6.02344 10.275C6.05312 10.1295 6.11131 9.99132 6.19465 9.86842C6.27799 9.74553 6.38484 9.64034 6.50904 9.55894C6.63323 9.47754 6.77231 9.42153 6.91825 9.39415C7.0642 9.36676 7.21412 9.36854 7.35938 9.39937L9.30094 9.77437C9.44574 9.80389 9.5833 9.86165 9.70577 9.94435C9.82824 10.027 9.93321 10.1331 10.0147 10.2563C10.0962 10.3796 10.1526 10.5177 10.1807 10.6628C10.2088 10.8079 10.208 10.9571 10.1784 11.1019C10.1488 11.2474 10.0906 11.3856 10.0072 11.5084C9.92389 11.6313 9.81704 11.7365 9.69284 11.8179C9.56865 11.8993 9.42957 11.9553 9.28363 11.9827C9.13768 12.0101 8.98776 12.0083 8.8425 11.9775L6.89719 11.6025C6.60565 11.542 6.34997 11.3684 6.18619 11.1198C6.02241 10.8711 5.96389 10.5677 6.02344 10.2759V10.275ZM6.02344 14.0925C6.08299 13.803 6.25404 13.5486 6.49963 13.3843C6.74523 13.2199 7.04564 13.1587 7.33594 13.2141L8.28375 13.4016C8.57599 13.4612 8.83258 13.6344 8.99713 13.8832C9.16168 14.1319 9.22071 14.4359 9.16125 14.7281C9.13165 14.8732 9.07369 15.011 8.9907 15.1337C8.90771 15.2563 8.80133 15.3614 8.67764 15.4428C8.55396 15.5243 8.41542 15.5805 8.26996 15.6083C8.1245 15.636 7.97499 15.6348 7.83 15.6047L6.8925 15.4172C6.60042 15.3571 6.34412 15.1836 6.17993 14.9347C6.01574 14.6857 5.95709 14.3818 6.01688 14.0897L6.02344 14.0925ZM18 14.9156C18 18.2466 15.3291 20.9756 12.0469 21C10.7625 21.0091 9.50899 20.6063 8.47031 19.8508C7.43163 19.0952 6.66244 18.0267 6.27563 16.8019C6.38254 16.8379 6.49148 16.8677 6.60188 16.8909L7.53938 17.0784C7.71248 17.1137 7.88866 17.1316 8.06531 17.1319C8.52733 17.1318 8.98112 17.0097 9.38086 16.778C9.78059 16.5464 10.1121 16.2133 10.3419 15.8125C10.5717 15.4117 10.6916 14.9573 10.6896 14.4953C10.6876 14.0333 10.5636 13.58 10.3303 13.1812C10.4044 13.1409 10.4775 13.0978 10.5478 13.05L10.5628 13.0744C10.7524 13.3629 10.9973 13.6109 11.2835 13.804C11.5696 13.9971 11.8912 14.1315 12.2297 14.1994L12.8222 14.3175C12.7099 14.8595 12.7327 15.4209 12.8885 15.9521C13.0443 16.4832 13.3283 16.9679 13.7156 17.3634C13.8562 17.4998 14.0444 17.5757 14.2402 17.5751C14.436 17.5745 14.6238 17.4973 14.7635 17.3601C14.9031 17.2229 14.9836 17.0365 14.9877 16.8408C14.9918 16.645 14.9191 16.4554 14.7853 16.3125C14.505 16.0264 14.3236 15.6581 14.2677 15.2615C14.2119 14.8649 14.2845 14.4608 14.475 14.1084C14.531 14.0052 14.562 13.8903 14.5655 13.7729C14.569 13.6555 14.5448 13.539 14.495 13.4326C14.4452 13.3263 14.3712 13.2331 14.2788 13.1606C14.1864 13.0882 14.0783 13.0384 13.9631 13.0153L12.525 12.7275C12.2329 12.6677 11.9766 12.4943 11.8122 12.2456C11.6479 11.9969 11.589 11.6931 11.6484 11.4009C11.6781 11.256 11.736 11.1184 11.8188 10.9959C11.9017 10.8734 12.0079 10.7684 12.1314 10.687C12.2548 10.6056 12.3932 10.5493 12.5384 10.5214C12.6836 10.4935 12.833 10.4945 12.9778 10.5244L14.985 10.9256C15.8343 11.0972 16.5983 11.5568 17.1477 12.2268C17.697 12.8968 17.9981 13.7361 18 14.6025V14.9156ZM18.7116 4.41562L17.1534 10.2281C16.5854 9.84893 15.9483 9.58517 15.2784 9.45187L15.0441 9.405L16.5375 3.83531C16.574 3.69072 16.6388 3.55482 16.7283 3.43552C16.8178 3.31622 16.9301 3.21589 17.0587 3.14038C17.1873 3.06487 17.3296 3.01568 17.4774 2.99567C17.6251 2.97566 17.7754 2.98522 17.9195 3.02381C18.0635 3.0624 18.1984 3.12925 18.3164 3.22045C18.4344 3.31166 18.5331 3.42542 18.6067 3.5551C18.6803 3.68478 18.7274 3.82781 18.7452 3.97586C18.7631 4.12391 18.7513 4.27404 18.7106 4.4175L18.7116 4.41562Z" fill="black"/>
</svg>
