<svg width="24" height="24" viewBox="0 0 24 24" fill="none" xmlns="http://www.w3.org/2000/svg">
<path opacity="0.2" d="M17.5716 11.5659C18.3306 12.395 18.7511 13.4785 18.75 14.6025V14.9156C18.75 18.6375 15.7734 21.7219 12.0516 21.75C11.1608 21.7568 10.2775 21.5872 9.45261 21.2511C8.6277 20.9149 7.87749 20.4188 7.24523 19.7913C6.61296 19.1638 6.11114 18.4174 5.7687 17.5951C5.42626 16.7728 5.24997 15.8908 5.25 15V14.3175C5.24987 14.1915 5.26275 14.0658 5.28844 13.9425C5.38751 13.4575 5.67434 13.0314 6.08636 12.7571C6.49837 12.4827 7.00215 12.3825 7.48781 12.4781L6.75 12.3375C6.26675 12.2341 5.84387 11.944 5.57333 11.5305C5.30279 11.1169 5.20646 10.6132 5.30531 10.129C5.40415 9.64479 5.69017 9.21918 6.10116 8.94473C6.51215 8.67028 7.01487 8.56919 7.5 8.66344L9.45094 9.03844L9.50438 9.05156L8.31469 4.61062C8.24552 4.37113 8.22481 4.12024 8.25375 3.87264C8.2827 3.62504 8.36073 3.3857 8.48328 3.16862C8.60583 2.95154 8.77044 2.76107 8.96748 2.60836C9.16452 2.45566 9.39003 2.34377 9.63082 2.27926C9.87161 2.21474 10.1229 2.19889 10.3698 2.23263C10.6168 2.26637 10.8546 2.34903 11.0693 2.47576C11.284 2.60249 11.4712 2.77076 11.6201 2.97072C11.7689 3.17068 11.8764 3.39831 11.9363 3.64031L13.6097 9.885L14.1131 9.98531L15.8138 3.64031C15.95 3.1686 16.2658 2.76915 16.6934 2.52777C17.1209 2.2864 17.6261 2.22237 18.1004 2.34944C18.5746 2.4765 18.9801 2.78453 19.2298 3.20734C19.4794 3.63014 19.5532 4.13399 19.4353 4.61062L17.5716 11.5659Z" fill="black"/>
<path d="M19.8975 2.8125C19.6371 2.36456 19.2501 2.00368 18.785 1.77531C18.32 1.54694 17.7978 1.46129 17.2841 1.52916C16.7705 1.59702 16.2884 1.81536 15.8986 2.15667C15.5089 2.49798 15.2288 2.94701 15.0937 3.44719L13.875 7.97719L12.6609 3.44719C12.5827 3.10275 12.4357 2.77766 12.2288 2.49137C12.0219 2.20508 11.7593 1.9635 11.4569 1.78108C11.1544 1.59866 10.8182 1.47915 10.4685 1.42973C10.1188 1.3803 9.76264 1.40197 9.42147 1.49343C9.0803 1.5849 8.7611 1.74427 8.48298 1.96202C8.20486 2.17976 7.97355 2.4514 7.8029 2.76066C7.63224 3.06991 7.52576 3.41043 7.48982 3.76181C7.45388 4.1132 7.48922 4.46822 7.59374 4.80562L8.47311 8.08687L7.65468 7.92937C7.09513 7.81422 6.5133 7.88475 5.99748 8.13024C5.48165 8.37574 5.05999 8.78281 4.79649 9.28967C4.53298 9.79653 4.44202 10.3755 4.5374 10.9388C4.63278 11.502 4.90929 12.0188 5.32499 12.4106C5.0626 12.6567 4.85388 12.9544 4.71191 13.2849C4.56994 13.6155 4.4978 13.9718 4.49999 14.3316V15C4.49999 16.9891 5.29016 18.8968 6.69669 20.3033C8.10321 21.7098 10.0109 22.5 12 22.5H12.0572C16.1616 22.4691 19.5 19.0669 19.5 14.9156V14.6025C19.4992 13.4387 19.111 12.3083 18.3965 11.3897L20.1562 4.80562C20.2472 4.47281 20.2711 4.12526 20.2267 3.78312C20.1823 3.44097 20.0704 3.11106 19.8975 2.8125ZM9.15092 3.5625C9.26203 3.3693 9.428 3.21346 9.62781 3.11473C9.82761 3.01601 10.0522 2.97885 10.2732 3.00798C10.4941 3.0371 10.7015 3.1312 10.8689 3.27832C11.0363 3.42545 11.1562 3.61899 11.2134 3.83437L12.5981 9.00469C12.1284 9.03342 11.6751 9.18787 11.2856 9.45187C11.2812 9.44342 11.2762 9.43528 11.2706 9.4275C10.9909 9.003 10.5925 8.67013 10.125 8.47031L9.03936 4.4175C9.00051 4.27469 8.99037 4.12559 9.00952 3.97883C9.02866 3.83207 9.07673 3.69056 9.15092 3.5625ZM6.02342 10.275C6.0531 10.1295 6.11129 9.99132 6.19464 9.86842C6.27798 9.74553 6.38483 9.64034 6.50902 9.55894C6.63322 9.47754 6.77229 9.42153 6.91824 9.39415C7.06418 9.36676 7.21411 9.36854 7.35936 9.39937L9.30092 9.77437C9.44572 9.80389 9.58328 9.86165 9.70575 9.94435C9.82822 10.027 9.9332 10.1331 10.0147 10.2563C10.0962 10.3796 10.1526 10.5177 10.1807 10.6628C10.2088 10.8079 10.208 10.9571 10.1784 11.1019C10.1487 11.2474 10.0906 11.3856 10.0072 11.5084C9.92387 11.6313 9.81702 11.7365 9.69283 11.8179C9.56864 11.8993 9.42956 11.9553 9.28361 11.9827C9.13767 12.0101 8.98774 12.0083 8.84249 11.9775L6.89717 11.6025C6.60563 11.542 6.34996 11.3684 6.18618 11.1198C6.0224 10.8711 5.96387 10.5677 6.02342 10.2759V10.275ZM6.02342 14.0925C6.08297 13.803 6.25403 13.5486 6.49962 13.3843C6.74521 13.2199 7.04562 13.1587 7.33592 13.2141L8.28374 13.4016C8.57597 13.4612 8.83257 13.6344 8.99711 13.8832C9.16166 14.1319 9.2207 14.4359 9.16124 14.7281C9.13163 14.8732 9.07368 15.011 8.99069 15.1337C8.9077 15.2563 8.80131 15.3614 8.67763 15.4428C8.55395 15.5243 8.4154 15.5805 8.26994 15.6083C8.12449 15.636 7.97497 15.6348 7.82999 15.6047L6.89249 15.4172C6.6004 15.3571 6.3441 15.1836 6.17991 14.9347C6.01573 14.6857 5.95708 14.3818 6.01686 14.0897L6.02342 14.0925ZM18 14.9156C18 18.2466 15.3291 20.9756 12.0469 21C10.7625 21.0091 9.50898 20.6063 8.47029 19.8508C7.43161 19.0952 6.66243 18.0267 6.27561 16.8019C6.38253 16.8379 6.49146 16.8677 6.60186 16.8909L7.53936 17.0784C7.71246 17.1137 7.88865 17.1316 8.0653 17.1319C8.52731 17.1318 8.98111 17.0097 9.38084 16.778C9.78058 16.5464 10.1121 16.2133 10.3419 15.8125C10.5717 15.4117 10.6916 14.9573 10.6896 14.4953C10.6876 14.0333 10.5636 13.58 10.3303 13.1812C10.4044 13.1409 10.4775 13.0978 10.5478 13.05L10.5628 13.0744C10.7524 13.3629 10.9973 13.6109 11.2834 13.804C11.5696 13.9971 11.8912 14.1315 12.2297 14.1994L12.8222 14.3175C12.7099 14.8595 12.7326 15.4209 12.8885 15.9521C13.0443 16.4832 13.3283 16.9679 13.7156 17.3634C13.8561 17.4998 14.0444 17.5757 14.2402 17.5751C14.436 17.5745 14.6238 17.4973 14.7634 17.3601C14.9031 17.2229 14.9836 17.0365 14.9877 16.8408C14.9917 16.645 14.9191 16.4554 14.7853 16.3125C14.5049 16.0264 14.3236 15.6581 14.2677 15.2615C14.2119 14.8649 14.2845 14.4608 14.475 14.1084C14.531 14.0052 14.562 13.8903 14.5655 13.7729C14.569 13.6555 14.5448 13.539 14.495 13.4326C14.4452 13.3263 14.3711 13.2331 14.2788 13.1606C14.1864 13.0882 14.0783 13.0384 13.9631 13.0153L12.525 12.7275C12.2329 12.6677 11.9766 12.4943 11.8122 12.2456C11.6478 11.9969 11.5889 11.6931 11.6484 11.4009C11.678 11.256 11.7359 11.1184 11.8188 10.9959C11.9017 10.8734 12.0079 10.7684 12.1314 10.687C12.2548 10.6056 12.3931 10.5493 12.5384 10.5214C12.6836 10.4935 12.8329 10.4945 12.9778 10.5244L14.985 10.9256C15.8343 11.0972 16.5982 11.5568 17.1476 12.2268C17.697 12.8968 17.9981 13.7361 18 14.6025V14.9156ZM18.7115 4.41562L17.1534 10.2281C16.5854 9.84893 15.9483 9.58517 15.2784 9.45187L15.0441 9.405L16.5375 3.83531C16.574 3.69072 16.6388 3.55482 16.7283 3.43552C16.8178 3.31622 16.9301 3.21589 17.0587 3.14038C17.1872 3.06487 17.3296 3.01568 17.4773 2.99567C17.6251 2.97566 17.7754 2.98522 17.9194 3.02381C18.0635 3.0624 18.1984 3.12925 18.3164 3.22045C18.4344 3.31166 18.533 3.42542 18.6067 3.5551C18.6803 3.68478 18.7274 3.82781 18.7452 3.97586C18.7631 4.12391 18.7513 4.27404 18.7106 4.4175L18.7115 4.41562Z" fill="black"/>
</svg>
