<svg width="24" height="24" viewBox="0 0 24 24" fill="none" xmlns="http://www.w3.org/2000/svg">
<path opacity="0.2" d="M17.7019 7.6875L12 12L6.3 7.725C6.20685 7.65514 6.13125 7.56455 6.07918 7.46041C6.02711 7.35627 6 7.24143 6 7.125V3.75C6 3.55109 6.07902 3.36032 6.21967 3.21967C6.36032 3.07902 6.55109 3 6.75 3H17.25C17.4489 3 17.6397 3.07902 17.7803 3.21967C17.921 3.36032 18 3.55109 18 3.75V7.09125C17.9996 7.20689 17.9725 7.32088 17.9208 7.42432C17.8691 7.52775 17.7942 7.61783 17.7019 7.6875ZM6 16.875V20.25C6 20.4489 6.07902 20.6397 6.21967 20.7803C6.36032 20.921 6.55109 21 6.75 21H17.25C17.4489 21 17.6397 20.921 17.7803 20.7803C17.921 20.6397 18 20.4489 18 20.25V16.9088C17.9999 16.7928 17.973 16.6784 17.9212 16.5746C17.8695 16.4709 17.7944 16.3805 17.7019 16.3106L12 12L6.3 16.275C6.20685 16.3449 6.13125 16.4354 6.07918 16.5396C6.02711 16.6437 6 16.7586 6 16.875Z" fill="black"/>
<path d="M18.75 7.09125V3.75C18.75 3.35218 18.592 2.97064 18.3107 2.68934C18.0294 2.40804 17.6478 2.25 17.25 2.25H6.75C6.35218 2.25 5.97064 2.40804 5.68934 2.68934C5.40804 2.97064 5.25 3.35218 5.25 3.75V7.125C5.25051 7.35778 5.30495 7.58727 5.40905 7.79548C5.51315 8.00368 5.66408 8.18493 5.85 8.325L10.7503 12L5.85 15.675C5.66408 15.8151 5.51315 15.9963 5.40905 16.2045C5.30495 16.4127 5.25051 16.6422 5.25 16.875V20.25C5.25 20.6478 5.40804 21.0294 5.68934 21.3107C5.97064 21.592 6.35218 21.75 6.75 21.75H17.25C17.6478 21.75 18.0294 21.592 18.3107 21.3107C18.592 21.0294 18.75 20.6478 18.75 20.25V16.9088C18.7495 16.6769 18.6955 16.4482 18.5922 16.2406C18.489 16.033 18.3393 15.8519 18.1547 15.7116L13.2441 12L18.1547 8.28844C18.3393 8.14807 18.489 7.96703 18.5922 7.7594C18.6955 7.55177 18.7495 7.32313 18.75 7.09125ZM17.25 20.25H6.75V16.875L12 12.9375L17.25 16.9078V20.25ZM17.25 7.09125L12 11.0625L6.75 7.125V3.75H17.25V7.09125Z" fill="black"/>
</svg>
