<svg width="24" height="24" viewBox="0 0 24 24" fill="none" xmlns="http://www.w3.org/2000/svg">
<path d="M9.75 14.25C9.75 14.4489 9.67098 14.6397 9.53033 14.7803C9.38968 14.921 9.19891 15 9 15H5.25C5.05109 15 4.86032 14.921 4.71967 14.7803C4.57902 14.6397 4.5 14.4489 4.5 14.25C4.5 14.0511 4.57902 13.8603 4.71967 13.7197C4.86032 13.579 5.05109 13.5 5.25 13.5H9C9.19891 13.5 9.38968 13.579 9.53033 13.7197C9.67098 13.8603 9.75 14.0511 9.75 14.25ZM22.5 10.875V16.5C22.5 16.8978 22.342 17.2794 22.0607 17.5607C21.7794 17.842 21.3978 18 21 18H12.75V21C12.75 21.1989 12.671 21.3897 12.5303 21.5303C12.3897 21.671 12.1989 21.75 12 21.75C11.8011 21.75 11.6103 21.671 11.4697 21.5303C11.329 21.3897 11.25 21.1989 11.25 21V18H3C2.60218 18 2.22064 17.842 1.93934 17.5607C1.65804 17.2794 1.5 16.8978 1.5 16.5V10.875C1.50174 9.38369 2.09493 7.95396 3.14944 6.89944C4.20396 5.84493 5.63369 5.25174 7.125 5.25H14.25V2.25C14.25 2.05109 14.329 1.86032 14.4697 1.71967C14.6103 1.57902 14.8011 1.5 15 1.5H18C18.1989 1.5 18.3897 1.57902 18.5303 1.71967C18.671 1.86032 18.75 2.05109 18.75 2.25C18.75 2.44891 18.671 2.63968 18.5303 2.78033C18.3897 2.92098 18.1989 3 18 3H15.75V5.25H16.875C18.3663 5.25174 19.796 5.84493 20.8506 6.89944C21.9051 7.95396 22.4983 9.38369 22.5 10.875ZM11.25 16.5V10.875C11.25 9.78098 10.8154 8.73177 10.0418 7.95818C9.26823 7.1846 8.21902 6.75 7.125 6.75C6.03098 6.75 4.98177 7.1846 4.20818 7.95818C3.4346 8.73177 3 9.78098 3 10.875V16.5H11.25ZM21 10.875C20.9988 9.78136 20.5638 8.73287 19.7904 7.95955C19.0171 7.18624 17.9686 6.75124 16.875 6.75H15.75V13.5C15.75 13.6989 15.671 13.8897 15.5303 14.0303C15.3897 14.171 15.1989 14.25 15 14.25C14.8011 14.25 14.6103 14.171 14.4697 14.0303C14.329 13.8897 14.25 13.6989 14.25 13.5V6.75H10.9453C11.5146 7.27571 11.9689 7.91363 12.2795 8.62357C12.5901 9.33352 12.7503 10.1001 12.75 10.875V16.5H21V10.875Z" fill="black"/>
</svg>
