<svg width="24" height="24" viewBox="0 0 24 24" fill="none" xmlns="http://www.w3.org/2000/svg">
<path opacity="0.2" d="M20.9709 3.95438L15.5128 21.9544C15.4711 22.101 15.3858 22.2315 15.2681 22.3284C15.1503 22.4254 15.0059 22.4841 14.854 22.4968C14.702 22.5095 14.5498 22.4757 14.4176 22.3997C14.2854 22.3237 14.1795 22.2093 14.114 22.0716L10.125 13.875L1.92936 9.88594C1.79167 9.82045 1.67721 9.71456 1.60124 9.58237C1.52527 9.45017 1.49139 9.29797 1.50411 9.14603C1.51684 8.99409 1.57558 8.84964 1.67249 8.73194C1.7694 8.61423 1.89988 8.52885 2.04655 8.48719L20.0465 3.02907C20.1748 2.99312 20.3103 2.99198 20.4391 3.02574C20.5679 3.0595 20.6854 3.12696 20.7796 3.22117C20.8737 3.31539 20.941 3.43297 20.9746 3.56183C21.0083 3.69069 21.007 3.82618 20.9709 3.95438Z" fill="black"/>
<path d="M21.3113 2.68876C21.1226 2.50025 20.8872 2.36544 20.6291 2.29821C20.3711 2.23098 20.0998 2.23376 19.8431 2.30626H19.8291L1.8347 7.76625C1.54257 7.85045 1.28292 8.02142 1.09016 8.25651C0.897393 8.49161 0.780616 8.77973 0.755302 9.08269C0.729987 9.38565 0.79733 9.68916 0.948405 9.95298C1.09948 10.2168 1.32716 10.4285 1.60126 10.56L9.56252 14.4375L13.4344 22.3941C13.5548 22.6511 13.7463 22.8682 13.9862 23.0199C14.2261 23.1716 14.5043 23.2514 14.7881 23.25C14.8313 23.25 14.8744 23.2481 14.9175 23.2444C15.2202 23.2199 15.5082 23.1034 15.7428 22.9105C15.9774 22.7176 16.1474 22.4576 16.23 22.1653L21.6863 4.17094C21.6863 4.16626 21.6863 4.16157 21.6863 4.15688C21.7597 3.90091 21.7637 3.63 21.6978 3.37199C21.6319 3.11397 21.4985 2.87815 21.3113 2.68876ZM14.7966 21.7359L14.7919 21.7491V21.7425L11.0363 14.0269L15.5363 9.52688C15.671 9.38508 15.745 9.19627 15.7425 9.0007C15.74 8.80513 15.6612 8.61827 15.5229 8.47997C15.3846 8.34167 15.1977 8.26287 15.0021 8.26036C14.8066 8.25786 14.6177 8.33185 14.476 8.46657L9.97595 12.9666L2.25751 9.21094H2.25095H2.26408L20.25 3.75001L14.7966 21.7359Z" fill="black"/>
</svg>
