<svg width="24" height="24" viewBox="0 0 24 24" fill="none" xmlns="http://www.w3.org/2000/svg">
<path d="M21.6938 4.15687C21.6938 4.15687 21.6938 4.16625 21.6938 4.17094L16.2375 22.1653C16.1549 22.4576 15.9849 22.7176 15.7503 22.9105C15.5157 23.1034 15.2277 23.2199 14.925 23.2444C14.8819 23.2481 14.8388 23.25 14.7956 23.25C14.5119 23.2509 14.2339 23.1706 13.9944 23.0186C13.7548 22.8666 13.5638 22.6492 13.4438 22.3922L10.0313 15.3891C9.99712 15.3189 9.98572 15.2398 9.99866 15.1628C10.0116 15.0859 10.0482 15.0148 10.1035 14.9597L15.5335 9.52969C15.6682 9.38789 15.7422 9.19908 15.7397 9.00351C15.7372 8.80794 15.6583 8.62108 15.52 8.48278C15.3817 8.34448 15.1949 8.26567 14.9993 8.26317C14.8037 8.26067 14.6149 8.33466 14.4731 8.46937L9.04033 13.8994C8.98517 13.9546 8.91416 13.9912 8.83719 14.0042C8.76022 14.0171 8.68113 14.0057 8.61095 13.9716L1.60126 10.56C1.32716 10.4285 1.09948 10.2168 0.948405 9.95298C0.79733 9.68915 0.729987 9.38565 0.755302 9.08269C0.780616 8.77972 0.897393 8.4916 1.09016 8.25651C1.28292 8.02141 1.54257 7.85044 1.8347 7.76625L19.8291 2.31H19.8431C20.0993 2.23802 20.3701 2.2355 20.6276 2.30269C20.8851 2.36988 21.1201 2.50437 21.3084 2.69235C21.4968 2.88034 21.6318 3.11506 21.6995 3.37242C21.7672 3.62978 21.7652 3.90053 21.6938 4.15687Z" fill="black"/>
</svg>
