<svg width="24" height="24" viewBox="0 0 24 24" fill="none" xmlns="http://www.w3.org/2000/svg">
<path opacity="0.2" d="M20.2387 5.28657L17.4497 21.1303C17.4326 21.2273 17.3965 21.32 17.3436 21.4031C17.2907 21.4862 17.2219 21.5581 17.1412 21.6146C17.0605 21.6711 16.9694 21.7111 16.8733 21.7324C16.7771 21.7537 16.6776 21.7559 16.5806 21.7388L4.36968 19.5825C4.17392 19.548 3.99988 19.4371 3.8858 19.2744C3.77171 19.1116 3.72691 18.9102 3.76124 18.7144L6.55031 2.87063C6.5674 2.77361 6.60344 2.6809 6.65637 2.59781C6.7093 2.51472 6.77808 2.44287 6.85879 2.38637C6.93949 2.32987 7.03054 2.28982 7.12672 2.26851C7.22291 2.24721 7.32235 2.24506 7.41937 2.26219L19.6303 4.41844C19.8261 4.45298 20.0001 4.56381 20.1142 4.72659C20.2283 4.88936 20.2731 5.09078 20.2387 5.28657Z" fill="black"/>
<path d="M19.7606 3.67969L7.54969 1.52344C7.15796 1.4545 6.7549 1.54397 6.42913 1.77217C6.10335 2.00037 5.88155 2.34861 5.8125 2.74031L3.02344 18.5841C2.98932 18.7782 2.99379 18.9771 3.03659 19.1694C3.07938 19.3618 3.15967 19.5439 3.27285 19.7052C3.38603 19.8665 3.5299 20.004 3.69622 20.1097C3.86254 20.2154 4.04807 20.2873 4.24219 20.3213L16.4531 22.4775C16.6473 22.5117 16.8463 22.5074 17.0388 22.4647C17.2313 22.4219 17.4134 22.3417 17.5749 22.2285C17.7363 22.1153 17.8738 21.9714 17.9796 21.805C18.0854 21.6386 18.1573 21.453 18.1912 21.2588L20.9803 5.415C21.0486 5.02315 20.9585 4.6202 20.7298 4.29478C20.5011 3.96936 20.1525 3.74811 19.7606 3.67969ZM16.7119 21L4.5 18.8438L7.28906 3L19.5 5.15625L16.7119 21ZM8.37562 5.47688C8.41036 5.2811 8.52143 5.10713 8.68439 4.99321C8.84736 4.8793 9.04889 4.83475 9.24469 4.86938L17.0259 6.24281C17.2109 6.27521 17.3769 6.37579 17.4913 6.52467C17.6057 6.67356 17.66 6.85993 17.6437 7.04696C17.6273 7.23399 17.5414 7.40808 17.4029 7.53484C17.2644 7.66159 17.0834 7.73179 16.8956 7.73156C16.8516 7.7315 16.8077 7.72774 16.7644 7.72031L8.98312 6.34594C8.78735 6.3112 8.61338 6.20014 8.49946 6.03717C8.38554 5.87421 8.341 5.67267 8.37562 5.47688ZM7.85625 8.43188C7.87334 8.33485 7.90938 8.24215 7.96231 8.15906C8.01524 8.07597 8.08403 8.00412 8.16473 7.94762C8.24544 7.89111 8.33648 7.85107 8.43267 7.82976C8.52885 7.80845 8.6283 7.8063 8.72531 7.82344L16.5066 9.19781C16.6928 9.22896 16.8604 9.3292 16.976 9.47853C17.0915 9.62786 17.1465 9.81527 17.1299 10.0034C17.1134 10.1915 17.0265 10.3664 16.8866 10.4932C16.7467 10.62 16.5641 10.6894 16.3753 10.6875C16.331 10.6876 16.2867 10.6835 16.2431 10.6753L8.46187 9.30188C8.26625 9.26671 8.09258 9.15533 7.97903 8.9922C7.86547 8.82907 7.82131 8.62754 7.85625 8.43188ZM7.33594 11.3859C7.37133 11.1907 7.48266 11.0174 7.64555 10.9041C7.80844 10.7907 8.00961 10.7466 8.205 10.7813L12.0938 11.4647C12.2786 11.4971 12.4446 11.5976 12.559 11.7464C12.6733 11.8952 12.7278 12.0814 12.7115 12.2684C12.6953 12.4553 12.6095 12.6294 12.4712 12.7562C12.3329 12.8831 12.152 12.9534 11.9644 12.9534C11.9204 12.9534 11.8765 12.9497 11.8331 12.9422L7.9425 12.255C7.7469 12.22 7.57316 12.1089 7.45943 11.9459C7.34571 11.783 7.30129 11.5816 7.33594 11.3859Z" fill="black"/>
</svg>
