<svg width="24" height="24" viewBox="0 0 24 24" fill="none" xmlns="http://www.w3.org/2000/svg">
<path d="M19.7606 3.67969L7.54969 1.52344C7.15796 1.4545 6.7549 1.54397 6.42913 1.77217C6.10335 2.00037 5.88155 2.34861 5.8125 2.74031L3.02344 18.5841C2.98932 18.7782 2.99379 18.9771 3.03659 19.1694C3.07938 19.3618 3.15967 19.5439 3.27285 19.7052C3.38603 19.8665 3.5299 20.004 3.69622 20.1097C3.86254 20.2154 4.04807 20.2873 4.24219 20.3213L16.4531 22.4775C16.6473 22.5117 16.8463 22.5074 17.0388 22.4647C17.2313 22.4219 17.4134 22.3417 17.5749 22.2285C17.7363 22.1153 17.8738 21.9714 17.9796 21.805C18.0854 21.6386 18.1573 21.453 18.1912 21.2588L20.9803 5.415C21.0486 5.02315 20.9585 4.6202 20.7298 4.29478C20.5011 3.96936 20.1525 3.74811 19.7606 3.67969ZM12.7031 12.3338C12.6725 12.5073 12.5818 12.6644 12.4469 12.7777C12.312 12.8911 12.1415 12.9533 11.9653 12.9534C11.9213 12.9534 11.8774 12.9497 11.8341 12.9422L7.94344 12.255C7.75854 12.2095 7.59786 12.0954 7.49399 11.9358C7.39012 11.7762 7.35084 11.5831 7.38411 11.3956C7.41738 11.2082 7.52072 11.0404 7.67317 10.9263C7.82561 10.8122 8.01574 10.7603 8.205 10.7813L12.0938 11.4647C12.1909 11.4817 12.2837 11.5176 12.3669 11.5705C12.4501 11.6234 12.522 11.6922 12.5786 11.7729C12.6352 11.8536 12.6753 11.9447 12.6967 12.0409C12.7181 12.1372 12.7202 12.2367 12.7031 12.3338ZM17.1094 10.0669C17.0788 10.2402 16.9882 10.3973 16.8535 10.5106C16.7188 10.6239 16.5485 10.6862 16.3725 10.6866C16.3282 10.6867 16.2839 10.6826 16.2403 10.6744L8.45906 9.30094C8.26313 9.26625 8.08901 9.15516 7.97499 8.99209C7.86097 8.82902 7.81641 8.62734 7.85109 8.43141C7.88578 8.23548 7.99688 8.06135 8.15994 7.94734C8.32301 7.83332 8.5247 7.78875 8.72062 7.82344L16.5019 9.19781C16.5991 9.21469 16.692 9.25057 16.7753 9.30341C16.8586 9.35625 16.9306 9.425 16.9873 9.50573C17.044 9.58645 17.0842 9.67757 17.1057 9.77386C17.1271 9.87015 17.1293 9.96973 17.1122 10.0669H17.1094ZM17.6297 7.11188C17.5991 7.28538 17.5084 7.44256 17.3735 7.55587C17.2385 7.66918 17.0681 7.73138 16.8919 7.73156C16.8479 7.7315 16.804 7.72774 16.7606 7.72031L8.97937 6.34594C8.88015 6.33134 8.78486 6.29698 8.69914 6.2449C8.61343 6.19282 8.53903 6.12408 8.48035 6.04274C8.42167 5.96141 8.3799 5.86912 8.35751 5.77136C8.33512 5.6736 8.33256 5.57233 8.35 5.47357C8.36743 5.3748 8.4045 5.28053 8.459 5.19634C8.51351 5.11214 8.58435 5.03974 8.66733 4.98341C8.75031 4.92708 8.84375 4.88796 8.94211 4.86837C9.04047 4.84879 9.14177 4.84913 9.24 4.86938L17.0212 6.24281C17.1185 6.25958 17.2115 6.29539 17.2949 6.34818C17.3784 6.40097 17.4505 6.4697 17.5073 6.55044C17.5641 6.63118 17.6044 6.72233 17.6259 6.81868C17.6474 6.91502 17.6496 7.01466 17.6325 7.11188H17.6297Z" fill="black"/>
</svg>
