<svg width="24" height="24" viewBox="0 0 24 24" fill="none" xmlns="http://www.w3.org/2000/svg">
<path d="M18.75 4.5H12.75V1.5C12.75 1.30109 12.671 1.11032 12.5303 0.96967C12.3897 0.829018 12.1989 0.75 12 0.75C11.8011 0.75 11.6103 0.829018 11.4697 0.96967C11.329 1.11032 11.25 1.30109 11.25 1.5V4.5H5.25C4.45435 4.5 3.69129 4.81607 3.12868 5.37868C2.56607 5.94129 2.25 6.70435 2.25 7.5V18C2.25 18.7956 2.56607 19.5587 3.12868 20.1213C3.69129 20.6839 4.45435 21 5.25 21H18.75C19.5456 21 20.3087 20.6839 20.8713 20.1213C21.4339 19.5587 21.75 18.7956 21.75 18V7.5C21.75 6.70435 21.4339 5.94129 20.8713 5.37868C20.3087 4.81607 19.5456 4.5 18.75 4.5ZM16.125 9C16.3475 9 16.565 9.06598 16.75 9.1896C16.935 9.31321 17.0792 9.48891 17.1644 9.69448C17.2495 9.90005 17.2718 10.1262 17.2284 10.3445C17.185 10.5627 17.0778 10.7632 16.9205 10.9205C16.7632 11.0778 16.5627 11.185 16.3445 11.2284C16.1262 11.2718 15.9 11.2495 15.6945 11.1644C15.4889 11.0792 15.3132 10.935 15.1896 10.75C15.066 10.565 15 10.3475 15 10.125C15 9.82663 15.1185 9.54048 15.3295 9.3295C15.5405 9.11853 15.8266 9 16.125 9ZM9 17.25H7.5C7.10218 17.25 6.72064 17.092 6.43934 16.8107C6.15804 16.5294 6 16.1478 6 15.75C6 15.3522 6.15804 14.9706 6.43934 14.6893C6.72064 14.408 7.10218 14.25 7.5 14.25H9V17.25ZM7.875 11.25C7.6525 11.25 7.43499 11.184 7.24998 11.0604C7.06498 10.9368 6.92078 10.7611 6.83564 10.5555C6.75049 10.35 6.72821 10.1238 6.77162 9.90552C6.81502 9.68729 6.92217 9.48684 7.0795 9.3295C7.23684 9.17217 7.43729 9.06502 7.65552 9.02162C7.87375 8.97821 8.09995 9.00049 8.30552 9.08564C8.51109 9.17078 8.68679 9.31498 8.8104 9.49998C8.93402 9.68499 9 9.9025 9 10.125C9 10.4234 8.88147 10.7095 8.6705 10.9205C8.45952 11.1315 8.17337 11.25 7.875 11.25ZM13.5 17.25H10.5V14.25H13.5V17.25ZM16.5 17.25H15V14.25H16.5C16.8978 14.25 17.2794 14.408 17.5607 14.6893C17.842 14.9706 18 15.3522 18 15.75C18 16.1478 17.842 16.5294 17.5607 16.8107C17.2794 17.092 16.8978 17.25 16.5 17.25Z" fill="black"/>
</svg>
