<svg width="24" height="24" viewBox="0 0 24 24" fill="none" xmlns="http://www.w3.org/2000/svg">
<path d="M22.0612 6.87846L17.1216 1.93971C16.9823 1.80038 16.8169 1.68986 16.6349 1.61446C16.4529 1.53905 16.2578 1.50024 16.0608 1.50024C15.8638 1.50024 15.6687 1.53905 15.4867 1.61446C15.3047 1.68986 15.1393 1.80038 15 1.93971L1.93874 15C1.79942 15.1393 1.6889 15.3047 1.6135 15.4867C1.53809 15.6687 1.49928 15.8638 1.49928 16.0608C1.49928 16.2578 1.53809 16.4529 1.6135 16.6349C1.6889 16.8169 1.79942 16.9823 1.93874 17.1216L6.87843 22.0603C7.01772 22.1997 7.1831 22.3102 7.36511 22.3856C7.54712 22.461 7.7422 22.4998 7.93921 22.4998C8.13622 22.4998 8.33131 22.461 8.51332 22.3856C8.69533 22.3102 8.8607 22.1997 8.99999 22.0603L22.0612 9.00002C22.2006 8.86073 22.3111 8.69535 22.3865 8.51334C22.4619 8.33133 22.5007 8.13625 22.5007 7.93924C22.5007 7.74222 22.4619 7.54714 22.3865 7.36513C22.3111 7.18312 22.2006 7.01775 22.0612 6.87846ZM7.93874 21L2.99999 16.0603L5.99999 13.0603L8.46937 15.5306C8.53905 15.6003 8.62178 15.6556 8.71282 15.6933C8.80387 15.731 8.90145 15.7504 8.99999 15.7504C9.09854 15.7504 9.19612 15.731 9.28717 15.6933C9.37821 15.6556 9.46094 15.6003 9.53062 15.5306C9.6003 15.461 9.65558 15.3782 9.69329 15.2872C9.731 15.1961 9.75041 15.0986 9.75041 15C9.75041 14.9015 9.731 14.8039 9.69329 14.7128C9.65558 14.6218 9.6003 14.5391 9.53062 14.4694L7.06031 12L8.99999 10.0603L11.4694 12.5306C11.6101 12.6714 11.801 12.7504 12 12.7504C12.199 12.7504 12.3899 12.6714 12.5306 12.5306C12.6714 12.3899 12.7504 12.199 12.7504 12C12.7504 11.801 12.6714 11.6101 12.5306 11.4694L10.0603 9.00002L12 7.06033L14.4694 9.53064C14.5391 9.60033 14.6218 9.6556 14.7128 9.69331C14.8039 9.73102 14.9014 9.75043 15 9.75043C15.0985 9.75043 15.1961 9.73102 15.2872 9.69331C15.3782 9.6556 15.4609 9.60033 15.5306 9.53064C15.6003 9.46096 15.6556 9.37823 15.6933 9.28719C15.731 9.19614 15.7504 9.09856 15.7504 9.00002C15.7504 8.90147 15.731 8.80389 15.6933 8.71285C15.6556 8.6218 15.6003 8.53907 15.5306 8.46939L13.0603 6.00002L16.0603 3.00002L21 7.93971L7.93874 21Z" fill="black"/>
</svg>
