<svg width="24" height="24" viewBox="0 0 24 24" fill="none" xmlns="http://www.w3.org/2000/svg">
<path d="M22.0612 9.00002L8.99999 22.0603C8.8607 22.1997 8.69533 22.3102 8.51332 22.3856C8.33131 22.461 8.13622 22.4998 7.93921 22.4998C7.7422 22.4998 7.54712 22.461 7.36511 22.3856C7.1831 22.3102 7.01772 22.1997 6.87843 22.0603L1.93874 17.1216C1.79942 16.9823 1.6889 16.8169 1.6135 16.6349C1.53809 16.4529 1.49928 16.2578 1.49928 16.0608C1.49928 15.8638 1.53809 15.6687 1.6135 15.4867C1.6889 15.3047 1.79942 15.1393 1.93874 15L4.67343 12.2653C4.70826 12.2305 4.74962 12.2028 4.79514 12.1839C4.84067 12.1651 4.88946 12.1553 4.93874 12.1553C4.98802 12.1553 5.03682 12.1651 5.08235 12.1839C5.12787 12.2028 5.16923 12.2305 5.20406 12.2653L8.46937 15.5306C8.54229 15.6035 8.62944 15.6606 8.72539 15.6983C8.82135 15.7359 8.92404 15.7534 9.02706 15.7496C9.13008 15.7459 9.23121 15.7209 9.32414 15.6763C9.41707 15.6316 9.49981 15.5684 9.56718 15.4903C9.69035 15.3417 9.75297 15.1522 9.74255 14.9595C9.73212 14.7668 9.64941 14.5851 9.51093 14.4506L6.26437 11.2041C6.19424 11.1338 6.15485 11.0385 6.15485 10.9392C6.15485 10.8399 6.19424 10.7447 6.26437 10.6744L7.67062 9.26814C7.70545 9.23328 7.74681 9.20562 7.79233 9.18674C7.83785 9.16787 7.88665 9.15816 7.93593 9.15816C7.98521 9.15816 8.03401 9.16787 8.07953 9.18674C8.12506 9.20562 8.16642 9.23328 8.20124 9.26814L11.4666 12.5335C11.5395 12.6063 11.6266 12.6634 11.7226 12.7011C11.8185 12.7387 11.9212 12.7562 12.0242 12.7525C12.1273 12.7487 12.2284 12.7237 12.3213 12.6791C12.4143 12.6345 12.497 12.5712 12.5644 12.4931C12.6875 12.3446 12.7502 12.155 12.7397 11.9623C12.7293 11.7696 12.6466 11.5879 12.5081 11.4535L9.26531 8.20408C9.19518 8.13378 9.15579 8.03853 9.15579 7.93924C9.15579 7.83994 9.19518 7.74469 9.26531 7.67439L10.6716 6.26814C10.7419 6.19801 10.8371 6.15863 10.9364 6.15863C11.0357 6.15863 11.1309 6.19801 11.2012 6.26814L14.4666 9.53346C14.5395 9.60648 14.6267 9.66366 14.7227 9.70143C14.8188 9.7392 14.9216 9.75674 15.0247 9.75296C15.1279 9.74918 15.2291 9.72415 15.3221 9.67944C15.4151 9.63474 15.4979 9.57131 15.5653 9.49314C15.6884 9.34445 15.7508 9.15482 15.7402 8.96211C15.7296 8.76939 15.6467 8.58776 15.5081 8.45345L12.2653 5.20408C12.1952 5.13378 12.1558 5.03854 12.1558 4.93924C12.1558 4.83994 12.1952 4.74469 12.2653 4.67439L15 1.93971C15.1393 1.80038 15.3047 1.68986 15.4867 1.61446C15.6687 1.53905 15.8638 1.50024 16.0608 1.50024C16.2578 1.50024 16.4529 1.53905 16.6349 1.61446C16.8169 1.68986 16.9823 1.80038 17.1216 1.93971L22.0612 6.87846C22.2006 7.01775 22.3111 7.18312 22.3865 7.36513C22.4619 7.54714 22.5007 7.74222 22.5007 7.93924C22.5007 8.13625 22.4619 8.33133 22.3865 8.51334C22.3111 8.69535 22.2006 8.86073 22.0612 9.00002Z" fill="black"/>
</svg>
