<svg width="24" height="24" viewBox="0 0 24 24" fill="none" xmlns="http://www.w3.org/2000/svg">
<path opacity="0.2" d="M21.5306 8.46937L8.46937 21.5306C8.32874 21.6712 8.13804 21.7501 7.93922 21.7501C7.74039 21.7501 7.5497 21.6712 7.40906 21.5306L2.46937 16.5938C2.32883 16.4531 2.24988 16.2624 2.24988 16.0636C2.24988 15.8648 2.32883 15.6741 2.46937 15.5334L15.5306 2.46937C15.6713 2.32883 15.862 2.24988 16.0608 2.24988C16.2596 2.24988 16.4503 2.32883 16.5909 2.46937L21.5306 7.40625C21.6006 7.47594 21.6562 7.55877 21.6941 7.64999C21.732 7.74121 21.7515 7.83903 21.7515 7.93781C21.7515 8.0366 21.732 8.13441 21.6941 8.22563C21.6562 8.31685 21.6006 8.39969 21.5306 8.46937Z" fill="black"/>
<path d="M22.0613 6.87846L17.1216 1.93971C16.9823 1.80038 16.8169 1.68986 16.6349 1.61446C16.4529 1.53905 16.2578 1.50024 16.0608 1.50024C15.8638 1.50024 15.6687 1.53905 15.4867 1.61446C15.3047 1.68986 15.1393 1.80038 15 1.93971L1.93875 15C1.79943 15.1393 1.68891 15.3047 1.6135 15.4867C1.5381 15.6687 1.49929 15.8638 1.49929 16.0608C1.49929 16.2578 1.5381 16.4529 1.6135 16.6349C1.68891 16.8169 1.79943 16.9823 1.93875 17.1216L6.87844 22.0603C7.01773 22.1997 7.18311 22.3102 7.36512 22.3856C7.54713 22.461 7.74221 22.4998 7.93922 22.4998C8.13623 22.4998 8.33131 22.461 8.51332 22.3856C8.69534 22.3102 8.86071 22.1997 9 22.0603L22.0613 9.00002C22.2006 8.86073 22.3111 8.69535 22.3865 8.51334C22.4619 8.33133 22.5007 8.13625 22.5007 7.93924C22.5007 7.74222 22.4619 7.54714 22.3865 7.36513C22.3111 7.18312 22.2006 7.01775 22.0613 6.87846ZM7.93875 21L3 16.0603L6 13.0603L8.46938 15.5306C8.53906 15.6003 8.62178 15.6556 8.71283 15.6933C8.80387 15.731 8.90146 15.7504 9 15.7504C9.09855 15.7504 9.19613 15.731 9.28717 15.6933C9.37822 15.6556 9.46094 15.6003 9.53063 15.5306C9.60031 15.461 9.65559 15.3782 9.6933 15.2872C9.73101 15.1961 9.75042 15.0986 9.75042 15C9.75042 14.9015 9.73101 14.8039 9.6933 14.7128C9.65559 14.6218 9.60031 14.5391 9.53063 14.4694L7.06031 12L9 10.0603L11.4694 12.5306C11.6101 12.6714 11.801 12.7504 12 12.7504C12.199 12.7504 12.3899 12.6714 12.5306 12.5306C12.6714 12.3899 12.7504 12.199 12.7504 12C12.7504 11.801 12.6714 11.6101 12.5306 11.4694L10.0603 9.00002L12 7.06033L14.4694 9.53064C14.5391 9.60033 14.6218 9.6556 14.7128 9.69331C14.8039 9.73102 14.9015 9.75043 15 9.75043C15.0985 9.75043 15.1961 9.73102 15.2872 9.69331C15.3782 9.6556 15.4609 9.60033 15.5306 9.53064C15.6003 9.46096 15.6556 9.37823 15.6933 9.28719C15.731 9.19614 15.7504 9.09856 15.7504 9.00002C15.7504 8.90147 15.731 8.80389 15.6933 8.71285C15.6556 8.6218 15.6003 8.53907 15.5306 8.46939L13.0603 6.00002L16.0603 3.00002L21 7.93971L7.93875 21Z" fill="black"/>
</svg>
