<svg width="24" height="24" viewBox="0 0 24 24" fill="none" xmlns="http://www.w3.org/2000/svg">
<path d="M22.1625 6.62346L12.2062 3.77909C12.1049 3.75003 11.9985 3.74268 11.8941 3.75753L2.03812 5.16565C1.68127 5.21814 1.35506 5.39683 1.11871 5.6693C0.882364 5.94178 0.751544 6.28996 0.75 6.65065V17.3494C0.751544 17.7101 0.882364 18.0583 1.11871 18.3307C1.35506 18.6032 1.68127 18.7819 2.03812 18.8344L11.8941 20.2406C11.9291 20.2461 11.9645 20.2493 12 20.25C12.0698 20.2502 12.1392 20.2404 12.2062 20.221L22.1625 17.3766C22.4748 17.2862 22.7494 17.0972 22.9454 16.8378C23.1414 16.5784 23.2483 16.2626 23.25 15.9375V8.06253C23.2483 7.73743 23.1414 7.42163 22.9454 7.16226C22.7494 6.90289 22.4748 6.71389 22.1625 6.62346ZM9 11.25H7.5V5.90065L11.25 5.3644V18.6357L7.5 18.0994V12.75H9C9.19891 12.75 9.38968 12.671 9.53033 12.5304C9.67098 12.3897 9.75 12.1989 9.75 12C9.75 11.8011 9.67098 11.6103 9.53033 11.4697C9.38968 11.329 9.19891 11.25 9 11.25ZM2.25 6.65065L6 6.1144V11.25H4.5C4.30109 11.25 4.11032 11.329 3.96967 11.4697C3.82902 11.6103 3.75 11.8011 3.75 12C3.75 12.1989 3.82902 12.3897 3.96967 12.5304C4.11032 12.671 4.30109 12.75 4.5 12.75H6V17.8857L2.25 17.3494V6.65065ZM12.75 18.5053V5.49471L21.75 8.06253V15.9375L12.75 18.5053Z" fill="black"/>
</svg>
