<svg width="24" height="24" viewBox="0 0 24 24" fill="none" xmlns="http://www.w3.org/2000/svg">
<path opacity="0.2" d="M3 12.75H9.75V15.375C9.75 16.2701 9.39442 17.1286 8.76149 17.7615C8.12855 18.3944 7.27011 18.75 6.375 18.75C5.47989 18.75 4.62145 18.3944 3.98851 17.7615C3.35558 17.1286 3 16.2701 3 15.375V12.75ZM14.25 12.75V15.375C14.25 16.2701 14.6056 17.1286 15.2385 17.7615C15.8715 18.3944 16.7299 18.75 17.625 18.75C18.5201 18.75 19.3785 18.3944 20.0115 17.7615C20.6444 17.1286 21 16.2701 21 15.375V12.75H14.25Z" fill="black"/>
<path d="M18.75 3.75C18.5511 3.75 18.3603 3.82902 18.2197 3.96967C18.079 4.11032 18 4.30109 18 4.5C18 4.69891 18.079 4.88968 18.2197 5.03033C18.3603 5.17098 18.5511 5.25 18.75 5.25C19.1478 5.25 19.5294 5.40804 19.8107 5.68934C20.092 5.97064 20.25 6.35218 20.25 6.75V12H3.75V6.75C3.75 6.35218 3.90804 5.97064 4.18934 5.68934C4.47064 5.40804 4.85218 5.25 5.25 5.25C5.44891 5.25 5.63968 5.17098 5.78033 5.03033C5.92098 4.88968 6 4.69891 6 4.5C6 4.30109 5.92098 4.11032 5.78033 3.96967C5.63968 3.82902 5.44891 3.75 5.25 3.75C4.45435 3.75 3.69129 4.06607 3.12868 4.62868C2.56607 5.19129 2.25 5.95435 2.25 6.75V15.375C2.25 16.469 2.6846 17.5182 3.45818 18.2918C4.23177 19.0654 5.28098 19.5 6.375 19.5C7.46902 19.5 8.51823 19.0654 9.29182 18.2918C10.0654 17.5182 10.5 16.469 10.5 15.375V13.5H13.5V15.375C13.5 16.469 13.9346 17.5182 14.7082 18.2918C15.4818 19.0654 16.531 19.5 17.625 19.5C18.719 19.5 19.7682 19.0654 20.5418 18.2918C21.3154 17.5182 21.75 16.469 21.75 15.375V6.75C21.75 5.95435 21.4339 5.19129 20.8713 4.62868C20.3087 4.06607 19.5456 3.75 18.75 3.75ZM19.9341 16.6228L16.8103 13.5H20.25V15.375C20.2507 15.8108 20.142 16.2398 19.9341 16.6228ZM3.75 15.375V13.8103L7.62281 17.6841C7.22297 17.9001 6.7739 18.0086 6.31953 17.999C5.86516 17.9894 5.42107 17.862 5.03071 17.6293C4.64036 17.3965 4.31712 17.0664 4.09262 16.6713C3.86813 16.2761 3.75007 15.8295 3.75 15.375ZM9 15.375C9.00067 15.8108 8.89205 16.2398 8.68406 16.6228L5.56031 13.5H9V15.375ZM15 15.375V13.8103L18.8728 17.6841C18.473 17.9001 18.0239 18.0086 17.5695 17.999C17.1152 17.9894 16.6711 17.862 16.2807 17.6293C15.8904 17.3965 15.5671 17.0664 15.3426 16.6713C15.1181 16.2761 15.0001 15.8295 15 15.375Z" fill="black"/>
</svg>
