<svg width="24" height="24" viewBox="0 0 24 24" fill="none" xmlns="http://www.w3.org/2000/svg">
<path d="M12 2.25C10.0716 2.25 8.18657 2.82183 6.58319 3.89317C4.97981 4.96452 3.73013 6.48726 2.99217 8.26884C2.25422 10.0504 2.06113 12.0108 2.43734 13.9021C2.81355 15.7934 3.74214 17.5307 5.10571 18.8943C6.46927 20.2579 8.20655 21.1865 10.0979 21.5627C11.9892 21.9389 13.9496 21.7458 15.7312 21.0078C17.5127 20.2699 19.0355 19.0202 20.1068 17.4168C21.1782 15.8134 21.75 13.9284 21.75 12C21.7473 9.41498 20.7192 6.93661 18.8913 5.10872C17.0634 3.28084 14.585 2.25273 12 2.25ZM6.75 12C6.75 12.1989 6.67098 12.3897 6.53033 12.5303C6.38967 12.671 6.19891 12.75 6 12.75C5.80108 12.75 5.61032 12.671 5.46967 12.5303C5.32901 12.3897 5.25 12.1989 5.25 12C5.25198 10.2104 5.96378 8.49466 7.22922 7.22922C8.49466 5.96378 10.2104 5.25199 12 5.25C12.1989 5.25 12.3897 5.32902 12.5303 5.46967C12.671 5.61032 12.75 5.80109 12.75 6C12.75 6.19891 12.671 6.38968 12.5303 6.53033C12.3897 6.67098 12.1989 6.75 12 6.75C10.6081 6.75149 9.27357 7.30509 8.28933 8.28933C7.30509 9.27358 6.75149 10.6081 6.75 12ZM9.75 12C9.75 11.555 9.88196 11.12 10.1292 10.75C10.3764 10.38 10.7278 10.0916 11.139 9.92127C11.5501 9.75097 12.0025 9.70642 12.439 9.79323C12.8754 9.88005 13.2763 10.0943 13.591 10.409C13.9057 10.7237 14.1199 11.1246 14.2068 11.561C14.2936 11.9975 14.249 12.4499 14.0787 12.861C13.9084 13.2722 13.62 13.6236 13.25 13.8708C12.88 14.118 12.445 14.25 12 14.25C11.4033 14.25 10.831 14.0129 10.409 13.591C9.98705 13.169 9.75 12.5967 9.75 12ZM12 18.75C11.8011 18.75 11.6103 18.671 11.4697 18.5303C11.329 18.3897 11.25 18.1989 11.25 18C11.25 17.8011 11.329 17.6103 11.4697 17.4697C11.6103 17.329 11.8011 17.25 12 17.25C13.3919 17.2485 14.7264 16.6949 15.7107 15.7107C16.6949 14.7264 17.2485 13.3919 17.25 12C17.25 11.8011 17.329 11.6103 17.4697 11.4697C17.6103 11.329 17.8011 11.25 18 11.25C18.1989 11.25 18.3897 11.329 18.5303 11.4697C18.671 11.6103 18.75 11.8011 18.75 12C18.748 13.7896 18.0362 15.5053 16.7708 16.7708C15.5053 18.0362 13.7896 18.748 12 18.75Z" fill="black"/>
</svg>
