<svg width="24" height="24" viewBox="0 0 24 24" fill="none" xmlns="http://www.w3.org/2000/svg">
<path d="M12 2.25C10.0716 2.25 8.18657 2.82183 6.58319 3.89317C4.97981 4.96452 3.73013 6.48726 2.99217 8.26884C2.25422 10.0504 2.06113 12.0108 2.43734 13.9021C2.81355 15.7934 3.74214 17.5307 5.10571 18.8943C6.46927 20.2579 8.20655 21.1865 10.0979 21.5627C11.9892 21.9389 13.9496 21.7458 15.7312 21.0078C17.5127 20.2699 19.0355 19.0202 20.1068 17.4168C21.1782 15.8134 21.75 13.9284 21.75 12C21.7473 9.41498 20.7192 6.93661 18.8913 5.10872C17.0634 3.28084 14.585 2.25273 12 2.25ZM12 20.25C10.3683 20.25 8.77325 19.7661 7.41654 18.8596C6.05984 17.9531 5.00241 16.6646 4.37799 15.1571C3.75357 13.6496 3.59019 11.9908 3.90852 10.3905C4.22685 8.79016 5.01258 7.32015 6.16637 6.16637C7.32015 5.01259 8.79016 4.22685 10.3905 3.90852C11.9908 3.59019 13.6496 3.75357 15.1571 4.37799C16.6646 5.00242 17.9531 6.05984 18.8596 7.41655C19.7661 8.77325 20.25 10.3683 20.25 12C20.2475 14.1873 19.3775 16.2843 17.8309 17.8309C16.2842 19.3775 14.1873 20.2475 12 20.25ZM12 6.75C10.6081 6.75149 9.27357 7.30509 8.28933 8.28933C7.30509 9.27358 6.75149 10.6081 6.75 12C6.75 12.1989 6.67098 12.3897 6.53033 12.5303C6.38967 12.671 6.19891 12.75 6 12.75C5.80108 12.75 5.61032 12.671 5.46967 12.5303C5.32901 12.3897 5.25 12.1989 5.25 12C5.25198 10.2104 5.96378 8.49466 7.22922 7.22922C8.49466 5.96378 10.2104 5.25199 12 5.25C12.1989 5.25 12.3897 5.32902 12.5303 5.46967C12.671 5.61032 12.75 5.80109 12.75 6C12.75 6.19891 12.671 6.38968 12.5303 6.53033C12.3897 6.67098 12.1989 6.75 12 6.75ZM18.75 12C18.748 13.7896 18.0362 15.5053 16.7708 16.7708C15.5053 18.0362 13.7896 18.748 12 18.75C11.8011 18.75 11.6103 18.671 11.4697 18.5303C11.329 18.3897 11.25 18.1989 11.25 18C11.25 17.8011 11.329 17.6103 11.4697 17.4697C11.6103 17.329 11.8011 17.25 12 17.25C13.3919 17.2485 14.7264 16.6949 15.7107 15.7107C16.6949 14.7264 17.2485 13.3919 17.25 12C17.25 11.8011 17.329 11.6103 17.4697 11.4697C17.6103 11.329 17.8011 11.25 18 11.25C18.1989 11.25 18.3897 11.329 18.5303 11.4697C18.671 11.6103 18.75 11.8011 18.75 12ZM15 12C15 11.4067 14.824 10.8266 14.4944 10.3333C14.1648 9.83994 13.6962 9.45542 13.148 9.22836C12.5999 9.0013 11.9967 8.94189 11.4147 9.05764C10.8328 9.1734 10.2982 9.45912 9.87868 9.87868C9.45912 10.2982 9.1734 10.8328 9.05764 11.4147C8.94188 11.9967 9.00129 12.5999 9.22836 13.148C9.45542 13.6962 9.83994 14.1648 10.3333 14.4944C10.8266 14.8241 11.4067 15 12 15C12.7956 15 13.5587 14.6839 14.1213 14.1213C14.6839 13.5587 15 12.7956 15 12ZM10.5 12C10.5 11.7033 10.588 11.4133 10.7528 11.1666C10.9176 10.92 11.1519 10.7277 11.426 10.6142C11.7001 10.5006 12.0017 10.4709 12.2926 10.5288C12.5836 10.5867 12.8509 10.7296 13.0607 10.9393C13.2704 11.1491 13.4133 11.4164 13.4712 11.7074C13.5291 11.9983 13.4993 12.2999 13.3858 12.574C13.2723 12.8481 13.08 13.0824 12.8334 13.2472C12.5867 13.412 12.2967 13.5 12 13.5C11.6022 13.5 11.2206 13.342 10.9393 13.0607C10.658 12.7794 10.5 12.3978 10.5 12Z" fill="black"/>
</svg>
