<svg width="24" height="24" viewBox="0 0 24 24" fill="none" xmlns="http://www.w3.org/2000/svg">
<path d="M21.7566 17.5087C22.2748 16.434 22.5291 15.251 22.4983 14.0582C22.4676 12.8654 22.1527 11.6972 21.5798 10.6505C21.0069 9.60381 20.1926 8.70892 19.2044 8.04016C18.2162 7.3714 17.0828 6.94806 15.8981 6.80531C15.5019 5.89172 14.9278 5.06618 14.2091 4.37685C13.4905 3.68751 12.6418 3.14818 11.7125 2.79033C10.7833 2.43248 9.79203 2.26326 8.79667 2.29255C7.80131 2.32185 6.82174 2.54906 5.91512 2.96095C5.0085 3.37283 4.19298 3.96114 3.51614 4.69154C2.83929 5.42195 2.31468 6.27983 1.9729 7.21513C1.63112 8.15043 1.47901 9.14444 1.52546 10.1391C1.57191 11.1339 1.81598 12.1094 2.24344 13.0087L1.56187 15.3253C1.48567 15.5839 1.48057 15.8583 1.54712 16.1195C1.61367 16.3808 1.74941 16.6193 1.94005 16.8099C2.13069 17.0006 2.36918 17.1363 2.63044 17.2029C2.89171 17.2694 3.16608 17.2643 3.42469 17.1881L5.74125 16.5066C6.48452 16.8663 7.28272 17.0992 8.10281 17.1956C8.50086 18.1281 9.08386 18.9702 9.81656 19.6711C10.5493 20.3719 11.4165 20.9169 12.3657 21.2731C13.315 21.6293 14.3267 21.7894 15.3396 21.7435C16.3524 21.6977 17.3455 21.447 18.2587 21.0066L20.5753 21.6881C20.8339 21.7643 21.1083 21.7694 21.3696 21.7029C21.6308 21.6363 21.8693 21.5006 22.06 21.3099C22.2506 21.1193 22.3863 20.8808 22.4529 20.6195C22.5194 20.3583 22.5143 20.0839 22.4381 19.8253L21.7566 17.5087ZM12.375 14.25C12.1525 14.25 11.935 14.184 11.75 14.0604C11.565 13.9368 11.4208 13.7611 11.3356 13.5555C11.2505 13.3499 11.2282 13.1237 11.2716 12.9055C11.315 12.6873 11.4222 12.4868 11.5795 12.3295C11.7368 12.1722 11.9373 12.065 12.1555 12.0216C12.3738 11.9782 12.6 12.0005 12.8055 12.0856C13.0111 12.1708 13.1868 12.315 13.3104 12.5C13.434 12.685 13.5 12.9025 13.5 13.125C13.5 13.4234 13.3815 13.7095 13.1705 13.9205C12.9595 14.1315 12.6734 14.25 12.375 14.25ZM7.5 14.25C7.50052 14.6996 7.54131 15.1483 7.62187 15.5906C7.11593 15.472 6.62772 15.2876 6.16969 15.0422C5.99708 14.9498 5.79521 14.9286 5.60719 14.9831L3 15.75L3.76594 13.1475C3.82041 12.9595 3.79922 12.7576 3.70687 12.585C2.93845 11.1909 2.75531 9.54859 3.19775 8.01943C3.64019 6.49028 4.67197 5.19951 6.06609 4.43109C7.46022 3.66267 9.1025 3.47953 10.6317 3.92197C12.1608 4.36441 13.4516 5.39618 14.22 6.79031C12.3769 6.98555 10.671 7.85534 9.43051 9.23241C8.18999 10.6095 7.50241 12.3966 7.5 14.25ZM17.625 14.25C17.4025 14.25 17.185 14.184 17 14.0604C16.815 13.9368 16.6708 13.7611 16.5856 13.5555C16.5005 13.3499 16.4782 13.1237 16.5216 12.9055C16.565 12.6873 16.6722 12.4868 16.8295 12.3295C16.9868 12.1722 17.1873 12.065 17.4055 12.0216C17.6238 11.9782 17.85 12.0005 18.0555 12.0856C18.2611 12.1708 18.4368 12.315 18.5604 12.5C18.684 12.685 18.75 12.9025 18.75 13.125C18.75 13.4234 18.6315 13.7095 18.4205 13.9205C18.2095 14.1315 17.9234 14.25 17.625 14.25Z" fill="black"/>
</svg>
