<svg width="24" height="24" viewBox="0 0 24 24" fill="none" xmlns="http://www.w3.org/2000/svg">
<path opacity="0.2" d="M15.3694 7.51031C15.2466 7.5 15.1237 7.5 15 7.5C13.9211 7.49992 12.8579 7.75846 11.8995 8.25396C10.9411 8.74945 10.1154 9.46746 9.49173 10.3478C8.86801 11.2282 8.46441 12.2452 8.31475 13.3137C8.16508 14.3821 8.27372 15.4709 8.63156 16.4888C7.64766 16.4364 6.68739 16.1678 5.81906 15.7022L3.21656 16.4672C3.08733 16.5051 2.95027 16.5076 2.81977 16.4743C2.68927 16.441 2.57014 16.3731 2.4749 16.2779C2.37967 16.1827 2.31183 16.0635 2.27853 15.933C2.24522 15.8025 2.24767 15.6655 2.28562 15.5363L3.04687 12.9375C2.61266 12.1179 2.35202 11.2176 2.28122 10.2928C2.21042 9.36798 2.33097 8.4385 2.63536 7.56235C2.93974 6.6862 3.42143 5.88219 4.05037 5.20047C4.6793 4.51876 5.44198 3.97398 6.29082 3.60013C7.13965 3.22628 8.05643 3.03137 8.98394 3.02758C9.91145 3.02379 10.8298 3.2112 11.6817 3.5781C12.5335 3.945 13.3006 4.48353 13.9351 5.16008C14.5696 5.83663 15.0578 6.63668 15.3694 7.51031Z" fill="black"/>
<path d="M13.5 13.125C13.5 13.3475 13.434 13.565 13.3104 13.75C13.1868 13.935 13.0111 14.0792 12.8055 14.1644C12.6 14.2495 12.3738 14.2718 12.1555 14.2284C11.9373 14.185 11.7368 14.0778 11.5795 13.9205C11.4222 13.7632 11.315 13.5627 11.2716 13.3445C11.2282 13.1262 11.2505 12.9 11.3356 12.6945C11.4208 12.4889 11.565 12.3132 11.75 12.1896C11.935 12.066 12.1525 12 12.375 12C12.6734 12 12.9595 12.1185 13.1705 12.3295C13.3815 12.5405 13.5 12.8266 13.5 13.125ZM17.625 12C17.4025 12 17.185 12.066 17 12.1896C16.815 12.3132 16.6708 12.4889 16.5856 12.6945C16.5005 12.9 16.4782 13.1262 16.5216 13.3445C16.565 13.5627 16.6722 13.7632 16.8295 13.9205C16.9868 14.0778 17.1873 14.185 17.4055 14.2284C17.6238 14.2718 17.85 14.2495 18.0555 14.1644C18.2611 14.0792 18.4368 13.935 18.5604 13.75C18.684 13.565 18.75 13.3475 18.75 13.125C18.75 12.8266 18.6315 12.5405 18.4205 12.3295C18.2095 12.1185 17.9234 12 17.625 12ZM22.4381 19.8253C22.5143 20.0839 22.5194 20.3583 22.4529 20.6195C22.3863 20.8808 22.2506 21.1193 22.06 21.3099C21.8693 21.5006 21.6308 21.6363 21.3696 21.7029C21.1083 21.7694 20.8339 21.7643 20.5753 21.6881L18.2588 21.0066C17.3455 21.447 16.3524 21.6977 15.3396 21.7435C14.3267 21.7894 13.315 21.6293 12.3657 21.2731C11.4165 20.9169 10.5493 20.3719 9.81657 19.6711C9.08386 18.9702 8.50087 18.1281 8.10281 17.1956C7.28272 17.0992 6.48452 16.8663 5.74125 16.5066L3.42469 17.1881C3.16608 17.2643 2.89171 17.2694 2.63045 17.2029C2.36918 17.1363 2.13069 17.0006 1.94005 16.8099C1.74941 16.6193 1.61368 16.3808 1.54713 16.1195C1.48058 15.8583 1.48567 15.5839 1.56188 15.3253L2.24344 13.0087C1.81599 12.1094 1.57191 11.1339 1.52547 10.1391C1.47902 9.14444 1.63112 8.15043 1.9729 7.21513C2.31468 6.27983 2.83929 5.42195 3.51614 4.69154C4.19298 3.96114 5.0085 3.37283 5.91512 2.96095C6.82174 2.54906 7.80131 2.32185 8.79667 2.29255C9.79204 2.26326 10.7833 2.43248 11.7125 2.79033C12.6418 3.14818 13.4905 3.68751 14.2091 4.37685C14.9278 5.06618 15.5019 5.89172 15.8981 6.80531C17.0828 6.94806 18.2162 7.3714 19.2044 8.04016C20.1926 8.70892 21.0069 9.60381 21.5798 10.6505C22.1527 11.6972 22.4676 12.8654 22.4983 14.0582C22.5291 15.251 22.2748 16.434 21.7566 17.5087L22.4381 19.8253ZM7.62188 15.5906C7.43638 14.5746 7.46288 13.5312 7.69972 12.526C7.93657 11.5207 8.37864 10.5752 8.99819 9.74886C9.61774 8.92253 10.4014 8.23317 11.3 7.72404C12.1986 7.21492 13.1927 6.89702 14.22 6.79031C13.8398 6.10007 13.3274 5.49147 12.712 4.99926C12.0967 4.50705 11.3904 4.14086 10.6335 3.92161C9.10483 3.47882 7.46291 3.66141 6.06891 4.42921C4.6749 5.19702 3.643 6.48714 3.20021 8.01576C2.75742 9.54439 2.94001 11.1863 3.70781 12.5803C3.80015 12.7529 3.82135 12.9548 3.76688 13.1428L3 15.75L5.6025 14.9841C5.79052 14.9296 5.99239 14.9508 6.165 15.0431C6.62455 15.2886 7.11437 15.4727 7.62188 15.5906ZM20.2922 17.0803C20.9706 15.8115 21.1706 14.3411 20.8555 12.9372C20.5404 11.5333 19.7313 10.2893 18.5757 9.43213C17.4201 8.57493 15.9949 8.16155 14.56 8.26734C13.125 8.37313 11.7759 8.99105 10.7585 10.0085C9.74106 11.0259 9.12314 12.375 9.01734 13.8099C8.91155 15.2449 9.32494 16.6701 10.1821 17.8257C11.0393 18.9813 12.2833 19.7904 13.6872 20.1055C15.0911 20.4205 16.5615 20.2206 17.8303 19.5422C18.0029 19.4498 18.2048 19.4286 18.3928 19.4831L21 20.25L20.2341 17.6475C20.178 17.4582 20.1989 17.2543 20.2922 17.0803Z" fill="black"/>
</svg>
