<svg width="24" height="24" viewBox="0 0 24 24" fill="none" xmlns="http://www.w3.org/2000/svg">
<path opacity="0.2" d="M21 6V14.25H3V6C3 5.60218 3.15804 5.22064 3.43934 4.93934C3.72064 4.65804 4.10218 4.5 4.5 4.5H19.5C19.8978 4.5 20.2794 4.65804 20.5607 4.93934C20.842 5.22064 21 5.60218 21 6Z" fill="black"/>
<path d="M19.5 3.75H4.5C3.90326 3.75 3.33097 3.98705 2.90901 4.40901C2.48705 4.83097 2.25 5.40326 2.25 6V16.5C2.25 17.0967 2.48705 17.669 2.90901 18.091C3.33097 18.5129 3.90326 18.75 4.5 18.75H11.25V20.25H9C8.80109 20.25 8.61032 20.329 8.46967 20.4697C8.32902 20.6103 8.25 20.8011 8.25 21C8.25 21.1989 8.32902 21.3897 8.46967 21.5303C8.61032 21.671 8.80109 21.75 9 21.75H15C15.1989 21.75 15.3897 21.671 15.5303 21.5303C15.671 21.3897 15.75 21.1989 15.75 21C15.75 20.8011 15.671 20.6103 15.5303 20.4697C15.3897 20.329 15.1989 20.25 15 20.25H12.75V18.75H19.5C20.0967 18.75 20.669 18.5129 21.091 18.091C21.5129 17.669 21.75 17.0967 21.75 16.5V6C21.75 5.40326 21.5129 4.83097 21.091 4.40901C20.669 3.98705 20.0967 3.75 19.5 3.75ZM4.5 5.25H19.5C19.6989 5.25 19.8897 5.32902 20.0303 5.46967C20.171 5.61032 20.25 5.80109 20.25 6V13.5H3.75V6C3.75 5.80109 3.82902 5.61032 3.96967 5.46967C4.11032 5.32902 4.30109 5.25 4.5 5.25ZM19.5 17.25H4.5C4.30109 17.25 4.11032 17.171 3.96967 17.0303C3.82902 16.8897 3.75 16.6989 3.75 16.5V15H20.25V16.5C20.25 16.6989 20.171 16.8897 20.0303 17.0303C19.8897 17.171 19.6989 17.25 19.5 17.25Z" fill="black"/>
</svg>
